999
dxfrw 0.6.3
  0
SECTION
  2
HEADER
  9
$ACADVER
  1
AC1021
  9
$DWGCODEPAGE
  3
ANSI_1252
  9
$INSBASE
 10
0
 20
0
 30
0
  9
$EXTMIN
 10
296.9999999999929
 20
2205.99999999773
 30
0
  9
$EXTMAX
 10
2240.000000000021
 20
3262.000000001677
 30
0
  9
$LIMMIN
 10
0
 20
0
  9
$LIMMAX
 10
420
 20
297
  9
$ORTHOMODE
 70
    0
  9
$REGENMODE
 70
    1
  9
$FILLMODE
 70
    1
  9
$QTEXTMODE
 70
    0
  9
$MIRRTEXT
 70
    0
  9
$LTSCALE
 40
1
  9
$ATTMODE
 70
    0
  9
$TEXTSIZE
 40
2.5
  9
$TRACEWID
 40
15.68
  9
$TEXTSTYLE
  7
STANDARD
  9
$CLAYER
  8
0
  9
$CELTYPE
  6
BYLAYER
  9
$CECOLOR
 62
  256
  9
$CELTSCALE
 40
1
  9
$DISPSILH
 70
    0
  9
$DIMSCALE
 40
2.5
  9
$DIMASZ
 40
2.5
  9
$DIMEXO
 40
0.625
  9
$DIMDLI
 40
3.75
  9
$DIMRND
 40
0
  9
$DIMDLE
 40
0
  9
$DIMEXE
 40
1.25
  9
$DIMTP
 40
0
  9
$DIMTM
 40
0
  9
$DIMTXT
 40
2.5
  9
$DIMCEN
 40
2.5
  9
$DIMTSZ
 40
0
  9
$DIMTOL
 70
    0
  9
$DIMLIM
 70
    0
  9
$DIMTIH
 70
    0
  9
$DIMTOH
 70
    0
  9
$DIMSE1
 70
    0
  9
$DIMSE2
 70
    0
  9
$DIMTAD
 70
    1
  9
$DIMZIN
 70
    8
  9
$DIMBLK
  1

  9
$DIMASO
 70
    1
  9
$DIMSHO
 70
    1
  9
$DIMPOST
  1

  9
$DIMAPOST
  1

  9
$DIMALT
 70
    0
  9
$DIMALTD
 70
    3
  9
$DIMALTF
 40
0.03937
  9
$DIMLFAC
 40
1
  9
$DIMTOFL
 70
    1
  9
$DIMTVP
 40
0
  9
$DIMTIX
 70
    0
  9
$DIMSOXD
 70
    0
  9
$DIMSAH
 70
    0
  9
$DIMBLK1
  1

  9
$DIMBLK2
  1

  9
$DIMSTYLE
  2
Standard
  9
$DIMCLRD
 70
    0
  9
$DIMCLRE
 70
    0
  9
$DIMCLRT
 70
    0
  9
$DIMTFAC
 40
1
  9
$DIMGAP
 40
0.625
  9
$DIMJUST
 70
    0
  9
$DIMSD1
 70
    0
  9
$DIMSD2
 70
    0
  9
$DIMTOLJ
 70
    0
  9
$DIMTZIN
 70
    8
  9
$DIMALTZ
 70
    0
  9
$DIMALTTZ
 70
    0
  9
$DIMUPT
 70
    0
  9
$DIMDEC
 70
    2
  9
$DIMTDEC
 70
    2
  9
$DIMALTU
 70
    2
  9
$DIMALTTD
 70
    3
  9
$DIMTXSTY
  7
STANDARD
  9
$DIMAUNIT
 70
    0
  9
$DIMADEC
 70
    0
  9
$DIMALTRND
 40
0
  9
$DIMAZIN
 70
    0
  9
$DIMDSEP
 70
   44
  9
$DIMATFIT
 70
    3
  9
$DIMFRAC
 70
    0
  9
$DIMLDRBLK
  1
STANDARD
  9
$DIMLUNIT
 70
    2
  9
$DIMLWD
 70
   -2
  9
$DIMLWE
 70
   -2
  9
$DIMTMOVE
 70
    0
  9
$DIMFXL
 40
1
  9
$DIMFXLON
 70
    0
  9
$DIMJOGANG
 40
0.7854
  9
$DIMTFILL
 70
    0
  9
$DIMTFILLCLR
 70
    0
  9
$DIMARCSYM
 70
    0
  9
$DIMLTYPE
  6

  9
$DIMLTEX1
  6

  9
$DIMLTEX2
  6

  9
$LUNITS
 70
    2
  9
$LUPREC
 70
    4
  9
$SKETCHINC
 40
1
  9
$FILLETRAD
 40
0
  9
$AUNITS
 70
    0
  9
$AUPREC
 70
    2
  9
$MENU
  1
.
  9
$ELEVATION
 40
0
  9
$PELEVATION
 40
0
  9
$THICKNESS
 40
0
  9
$LIMCHECK
 70
    0
  9
$CHAMFERA
 40
0
  9
$CHAMFERB
 40
0
  9
$CHAMFERC
 40
0
  9
$CHAMFERD
 40
0
  9
$SKPOLY
 70
    0
  9
$USRTIMER
 70
    1
  9
$ANGBASE
 50
0
  9
$ANGDIR
 70
    0
  9
$PDMODE
 70
   34
  9
$PDSIZE
 40
0
  9
$PLINEWID
 40
0
  9
$SPLFRAME
 70
    0
  9
$SPLINETYPE
 70
    2
  9
$SPLINESEGS
 70
    8
  9
$HANDSEED
  5
20000
  9
$SURFTAB1
 70
    6
  9
$SURFTAB2
 70
    6
  9
$SURFTYPE
 70
    6
  9
$SURFU
 70
    6
  9
$SURFV
 70
    6
  9
$UCSBASE
  2

  9
$UCSNAME
  2

  9
$UCSORG
 10
0
 20
0
 30
0
  9
$UCSXDIR
 10
1
 20
0
 30
0
  9
$UCSYDIR
 10
0
 20
1
 30
0
  9
$UCSORTHOREF
  2

  9
$UCSORTHOVIEW
 70
    0
  9
$UCSORGTOP
 10
0
 20
0
 30
0
  9
$UCSORGBOTTOM
 10
0
 20
0
 30
0
  9
$UCSORGLEFT
 10
0
 20
0
 30
0
  9
$UCSORGRIGHT
 10
0
 20
0
 30
0
  9
$UCSORGFRONT
 10
0
 20
0
 30
0
  9
$UCSORGBACK
 10
0
 20
0
 30
0
  9
$PUCSBASE
  2

  9
$PUCSNAME
  2

  9
$PUCSORG
 10
0
 20
0
 30
0
  9
$PUCSXDIR
 10
1
 20
0
 30
0
  9
$PUCSYDIR
 10
0
 20
1
 30
0
  9
$PUCSORTHOREF
  2

  9
$PUCSORTHOVIEW
 70
    0
  9
$PUCSORGTOP
 10
0
 20
0
 30
0
  9
$PUCSORGBOTTOM
 10
0
 20
0
 30
0
  9
$PUCSORGLEFT
 10
0
 20
0
 30
0
  9
$PUCSORGRIGHT
 10
0
 20
0
 30
0
  9
$PUCSORGFRONT
 10
0
 20
0
 30
0
  9
$PUCSORGBACK
 10
0
 20
0
 30
0
  9
$USERI1
 70
    0
  9
$USERI2
 70
    0
  9
$USERI3
 70
    0
  9
$USERI4
 70
    0
  9
$USERI5
 70
    0
  9
$USERR1
 40
0
  9
$USERR2
 40
0
  9
$USERR3
 40
0
  9
$USERR4
 40
0
  9
$USERR5
 40
0
  9
$WORLDVIEW
 70
    1
  9
$SHADEDGE
 70
    3
  9
$SHADEDIF
 70
   70
  9
$TILEMODE
 70
    1
  9
$MAXACTVP
 70
   64
  9
$PINSBASE
 10
0
 20
0
 30
0
  9
$PLIMCHECK
 70
    0
  9
$PEXTMIN
 10
0
 20
0
 30
0
  9
$PEXTMAX
 10
0
 20
0
 30
0
  9
$SNAPSTYLE
 70
    0
  9
$PLIMMIN
 10
0
 20
0
  9
$PLIMMAX
 10
210
 20
297
  9
$UNITMODE
 70
    0
  9
$VISRETAIN
 70
    1
  9
$PLINEGEN
 70
    0
  9
$PSLTSCALE
 70
    1
  9
$TREEDEPTH
 70
 3020
  9
$CMLSTYLE
  2
Standard
  9
$CMLJUST
 70
    0
  9
$CMLSCALE
 40
20
  9
$PROXYGRAPHICS
 70
    1
  9
$MEASUREMENT
 70
    1
  9
$CELWEIGHT
370
   -1
  9
$ENDCAPS
280
    0
  9
$JOINSTYLE
280
    0
  9
$LWDISPLAY
290
    0
  9
$INSUNITS
 70
    4
  9
$HYPERLINKBASE
  1

  9
$STYLESHEET
  1

  9
$XEDIT
290
    1
  9
$CEPSNTYPE
380
    0
  9
$PSTYLEMODE
290
    1
  9
$EXTNAMES
290
    1
  9
$PSVPSCALE
 40
1
  9
$OLESTARTUP
290
    0
  9
$SORTENTS
280
  127
  9
$INDEXCTL
280
    0
  9
$HIDETEXT
280
    1
  9
$XCLIPFRAME
290
    0
  9
$HALOGAP
280
    0
  9
$OBSCOLOR
 70
  257
  9
$OBSLTYPE
280
    0
  9
$INTERSECTIONDISPLAY
280
    0
  9
$INTERSECTIONCOLOR
 70
  257
  9
$DIMASSOC
280
    1
  9
$PROJECTNAME
  1

  9
$CAMERADISPLAY
290
    0
  9
$LENSLENGTH
 40
50
  9
$CAMERAHEIGHT
 40
0
  9
$STEPSPERSEC
 40
2
  9
$STEPSIZE
 40
50
  9
$3DDWFPREC
 40
2
  9
$PSOLWIDTH
 40
5
  9
$PSOLHEIGHT
 40
80
  9
$LOFTANG1
 40
1.570796326794897
  9
$LOFTANG2
 40
1.570796326794897
  9
$LOFTMAG1
 40
0
  9
$LOFTMAG2
 40
0
  9
$LOFTPARAM
 70
    7
  9
$LOFTNORMALS
280
    1
  9
$LATITUDE
 40
1
  9
$LONGITUDE
 40
1
  9
$NORTHDIRECTION
 40
0
  9
$TIMEZONE
 70
-8000
  9
$LIGHTGLYPHDISPLAY
280
    1
  9
$TILEMODELIGHTSYNCH
280
    1
  9
$SOLIDHIST
280
    1
  9
$SHOWHIST
280
    1
  9
$DWFFRAME
280
    2
  9
$DGNFRAME
280
    0
  9
$REALWORLDSCALE
290
    1
  9
$INTERFERECOLOR
 62
    1
  9
$CSHADOW
280
    0
  9
$SHADOWPLANELOCATION
 40
0
  0
ENDSEC
  0
SECTION
  2
CLASSES
  0
ENDSEC
  0
SECTION
  2
TABLES
  0
TABLE
  2
VPORT
  5
8
330
0
100
AcDbSymbolTable
 70
    1
  0
VPORT
  5
31
330
2
100
AcDbSymbolTableRecord
100
AcDbViewportTableRecord
  2
*ACTIVE
 70
    0
 10
0
 20
0
 11
1
 21
1
 12
4627.016068998554
 22
3648.82139669349
 13
0
 23
0
 14
10
 24
10
 15
10
 25
10
 16
0
 26
0
 36
1
 17
0
 27
0
 37
0
 40
8394.877028988429
 41
1.893958076448829
 42
50
 43
0
 44
0
 50
0
 51
0
 71
    0
 72
  100
 73
    1
 74
    3
 75
    0
 76
    1
 77
    0
 78
    0
281
    0
 65
    1
110
0
120
0
130
0
111
1
121
0
131
0
112
0
122
1
132
0
 79
    0
146
0
348
10020
 60
    7
 61
    5
292
1
282
    1
141
0
142
0
 63
  250
421
3358443
  0
ENDTAB
  0
TABLE
  2
LTYPE
  5
5
330
0
100
AcDbSymbolTable
 70
    4
  0
LTYPE
  5
14
330
5
100
AcDbSymbolTableRecord
100
AcDbLinetypeTableRecord
  2
ByBlock
 70
    0
  3

 72
   65
 73
    0
 40
0
  0
LTYPE
  5
15
330
5
100
AcDbSymbolTableRecord
100
AcDbLinetypeTableRecord
  2
ByLayer
 70
    0
  3

 72
   65
 73
    0
 40
0
  0
LTYPE
  5
16
330
5
100
AcDbSymbolTableRecord
100
AcDbLinetypeTableRecord
  2
Continuous
 70
    0
  3
Solid line
 72
   65
 73
    0
 40
0
  0
LTYPE
  5
32
330
5
100
AcDbSymbolTableRecord
100
AcDbLinetypeTableRecord
  2
DOT
 70
    0
  3
Dot . . . . . . . . . . . . . . . . . . . . . .
 72
   65
 73
    2
 40
6.35
 49
0
 74
    0
 49
-6.35
 74
    0
  0
LTYPE
  5
33
330
5
100
AcDbSymbolTableRecord
100
AcDbLinetypeTableRecord
  2
DOTTINY
 70
    0
  3
Dot (.15x) .....................................
 72
   65
 73
    2
 40
0.9525
 49
0
 74
    0
 49
-0.9525
 74
    0
  0
LTYPE
  5
34
330
5
100
AcDbSymbolTableRecord
100
AcDbLinetypeTableRecord
  2
DOT2
 70
    0
  3
Dot (.5x) .....................................
 72
   65
 73
    2
 40
3.175
 49
0
 74
    0
 49
-3.175
 74
    0
  0
LTYPE
  5
35
330
5
100
AcDbSymbolTableRecord
100
AcDbLinetypeTableRecord
  2
DOTX2
 70
    0
  3
Dot (2x) .  .  .  .  .  .  .  .  .  .  .  .  .
 72
   65
 73
    2
 40
12.7
 49
0
 74
    0
 49
-12.7
 74
    0
  0
LTYPE
  5
36
330
5
100
AcDbSymbolTableRecord
100
AcDbLinetypeTableRecord
  2
DASHED
 70
    0
  3
Dashed _ _ _ _ _ _ _ _ _ _ _ _ _ _ _ _ _
 72
   65
 73
    2
 40
19.05
 49
12.7
 74
    0
 49
-6.35
 74
    0
  0
LTYPE
  5
37
330
5
100
AcDbSymbolTableRecord
100
AcDbLinetypeTableRecord
  2
DASHEDTINY
 70
    0
  3
Dashed (.15x) _ _ _ _ _ _ _ _ _ _ _ _ _ _ _ _ _
 72
   65
 73
    2
 40
2.8575
 49
1.905
 74
    0
 49
-0.9525
 74
    0
  0
LTYPE
  5
38
330
5
100
AcDbSymbolTableRecord
100
AcDbLinetypeTableRecord
  2
DASHED2
 70
    0
  3
Dashed (.5x) _ _ _ _ _ _ _ _ _ _ _ _ _ _ _ _ _
 72
   65
 73
    2
 40
9.524999999999999
 49
6.35
 74
    0
 49
-3.175
 74
    0
  0
LTYPE
  5
39
330
5
100
AcDbSymbolTableRecord
100
AcDbLinetypeTableRecord
  2
DASHEDX2
 70
    0
  3
Dashed (2x) ____  ____  ____  ____  ____  ___
 72
   65
 73
    2
 40
38.09999999999999
 49
25.4
 74
    0
 49
-12.7
 74
    0
  0
LTYPE
  5
3A
330
5
100
AcDbSymbolTableRecord
100
AcDbLinetypeTableRecord
  2
DASHDOT
 70
    0
  3
Dash dot __ . __ . __ . __ . __ . __ . __ . __
 72
   65
 73
    4
 40
25.4
 49
12.7
 74
    0
 49
-6.35
 74
    0
 49
0
 74
    0
 49
-6.35
 74
    0
  0
LTYPE
  5
3B
330
5
100
AcDbSymbolTableRecord
100
AcDbLinetypeTableRecord
  2
DASHDOTTINY
 70
    0
  3
Dash dot (.15x) _._._._._._._._._._._._._._._.
 72
   65
 73
    4
 40
3.81
 49
1.905
 74
    0
 49
-0.9525
 74
    0
 49
0
 74
    0
 49
-0.9525
 74
    0
  0
LTYPE
  5
3C
330
5
100
AcDbSymbolTableRecord
100
AcDbLinetypeTableRecord
  2
DASHDOT2
 70
    0
  3
Dash dot (.5x) _._._._._._._._._._._._._._._.
 72
   65
 73
    4
 40
12.7
 49
6.35
 74
    0
 49
-3.175
 74
    0
 49
0
 74
    0
 49
-3.175
 74
    0
  0
LTYPE
  5
3D
330
5
100
AcDbSymbolTableRecord
100
AcDbLinetypeTableRecord
  2
DASHDOTX2
 70
    0
  3
Dash dot (2x) ____  .  ____  .  ____  .  ___
 72
   65
 73
    4
 40
50.8
 49
25.4
 74
    0
 49
-12.7
 74
    0
 49
0
 74
    0
 49
-12.7
 74
    0
  0
LTYPE
  5
3E
330
5
100
AcDbSymbolTableRecord
100
AcDbLinetypeTableRecord
  2
DIVIDE
 70
    0
  3
Divide ____ . . ____ . . ____ . . ____ . . ____
 72
   65
 73
    6
 40
31.75
 49
12.7
 74
    0
 49
-6.35
 74
    0
 49
0
 74
    0
 49
-6.35
 74
    0
 49
0
 74
    0
 49
-6.35
 74
    0
  0
LTYPE
  5
3F
330
5
100
AcDbSymbolTableRecord
100
AcDbLinetypeTableRecord
  2
DIVIDETINY
 70
    0
  3
Divide (.15x) __..__..__..__..__..__..__..__.._
 72
   65
 73
    6
 40
4.7625
 49
1.905
 74
    0
 49
-0.9525
 74
    0
 49
0
 74
    0
 49
-0.9525
 74
    0
 49
0
 74
    0
 49
-0.9525
 74
    0
  0
LTYPE
  5
40
330
5
100
AcDbSymbolTableRecord
100
AcDbLinetypeTableRecord
  2
DIVIDE2
 70
    0
  3
Divide (.5x) __..__..__..__..__..__..__..__.._
 72
   65
 73
    6
 40
15.875
 49
6.35
 74
    0
 49
-3.175
 74
    0
 49
0
 74
    0
 49
-3.175
 74
    0
 49
0
 74
    0
 49
-3.175
 74
    0
  0
LTYPE
  5
41
330
5
100
AcDbSymbolTableRecord
100
AcDbLinetypeTableRecord
  2
DIVIDEX2
 70
    0
  3
Divide (2x) ________  .  .  ________  .  .  _
 72
   65
 73
    6
 40
63.5
 49
25.4
 74
    0
 49
-12.7
 74
    0
 49
0
 74
    0
 49
-12.7
 74
    0
 49
0
 74
    0
 49
-12.7
 74
    0
  0
LTYPE
  5
42
330
5
100
AcDbSymbolTableRecord
100
AcDbLinetypeTableRecord
  2
BORDER
 70
    0
  3
Border __ __ . __ __ . __ __ . __ __ . __ __ .
 72
   65
 73
    6
 40
44.45
 49
12.7
 74
    0
 49
-6.35
 74
    0
 49
12.7
 74
    0
 49
-6.35
 74
    0
 49
0
 74
    0
 49
-6.35
 74
    0
  0
LTYPE
  5
43
330
5
100
AcDbSymbolTableRecord
100
AcDbLinetypeTableRecord
  2
BORDERTINY
 70
    0
  3
Border (.15x) __.__.__.__.__.__.__.__.__.__.__.
 72
   65
 73
    6
 40
6.6675
 49
1.905
 74
    0
 49
-0.9525
 74
    0
 49
1.905
 74
    0
 49
-0.9525
 74
    0
 49
0
 74
    0
 49
-0.9525
 74
    0
  0
LTYPE
  5
44
330
5
100
AcDbSymbolTableRecord
100
AcDbLinetypeTableRecord
  2
BORDER2
 70
    0
  3
Border (.5x) __.__.__.__.__.__.__.__.__.__.__.
 72
   65
 73
    6
 40
22.225
 49
6.35
 74
    0
 49
-3.175
 74
    0
 49
6.35
 74
    0
 49
-3.175
 74
    0
 49
0
 74
    0
 49
-3.175
 74
    0
  0
LTYPE
  5
45
330
5
100
AcDbSymbolTableRecord
100
AcDbLinetypeTableRecord
  2
BORDERX2
 70
    0
  3
Border (2x) ____  ____  .  ____  ____  .  ___
 72
   65
 73
    6
 40
88.89999999999999
 49
25.4
 74
    0
 49
-12.7
 74
    0
 49
25.4
 74
    0
 49
-12.7
 74
    0
 49
0
 74
    0
 49
-12.7
 74
    0
  0
LTYPE
  5
46
330
5
100
AcDbSymbolTableRecord
100
AcDbLinetypeTableRecord
  2
CENTER
 70
    0
  3
Center ____ _ ____ _ ____ _ ____ _ ____ _ ____
 72
   65
 73
    4
 40
50.8
 49
31.75
 74
    0
 49
-6.35
 74
    0
 49
6.35
 74
    0
 49
-6.35
 74
    0
  0
LTYPE
  5
47
330
5
100
AcDbSymbolTableRecord
100
AcDbLinetypeTableRecord
  2
CENTERTINY
 70
    0
  3
Center (.15x) ___ _ ___ _ ___ _ ___ _ ___ _ ___
 72
   65
 73
    4
 40
7.619999999999999
 49
4.7625
 74
    0
 49
-0.9525
 74
    0
 49
0.9525
 74
    0
 49
-0.9525
 74
    0
  0
LTYPE
  5
48
330
5
100
AcDbSymbolTableRecord
100
AcDbLinetypeTableRecord
  2
CENTER2
 70
    0
  3
Center (.5x) ___ _ ___ _ ___ _ ___ _ ___ _ ___
 72
   65
 73
    4
 40
28.575
 49
19.05
 74
    0
 49
-3.175
 74
    0
 49
3.175
 74
    0
 49
-3.175
 74
    0
  0
LTYPE
  5
49
330
5
100
AcDbSymbolTableRecord
100
AcDbLinetypeTableRecord
  2
CENTERX2
 70
    0
  3
Center (2x) ________  __  ________  __  _____
 72
   65
 73
    4
 40
101.6
 49
63.5
 74
    0
 49
-12.7
 74
    0
 49
12.7
 74
    0
 49
-12.7
 74
    0
  0
ENDTAB
  0
TABLE
  2
LAYER
  5
2
330
0
100
AcDbSymbolTable
 70
    1
  0
LAYER
  5
10
330
2
100
AcDbSymbolTableRecord
100
AcDbLayerTableRecord
  2
0
 70
    0
 62
    7
  6
CONTINUOUS
370
    0
390
F
  0
ENDTAB
  0
TABLE
  2
STYLE
  5
3
330
0
100
AcDbSymbolTable
 70
    3
  0
STYLE
  5
4A
330
2
100
AcDbSymbolTableRecord
100
AcDbTextStyleTableRecord
  2
Standard
 70
    0
 40
0
 41
1
 50
0
 71
    0
 42
1
  3
txt
  4

  0
ENDTAB
  0
TABLE
  2
VIEW
  5
6
330
0
100
AcDbSymbolTable
 70
    0
  0
ENDTAB
  0
TABLE
  2
UCS
  5
7
330
0
100
AcDbSymbolTable
 70
    0
  0
ENDTAB
  0
TABLE
  2
APPID
  5
9
330
0
100
AcDbSymbolTable
 70
    1
  0
APPID
  5
12
330
9
100
AcDbSymbolTableRecord
100
AcDbRegAppTableRecord
  2
ACAD
 70
    0
  0
APPID
  5
4B
330
9
100
AcDbSymbolTableRecord
100
AcDbRegAppTableRecord
  2
LibreCad
 70
    0
  0
ENDTAB
  0
TABLE
  2
DIMSTYLE
  5
A
330
0
100
AcDbSymbolTable
 70
    1
100
AcDbDimStyleTable
 71
    1
  0
DIMSTYLE
105
4C
330
A
100
AcDbSymbolTableRecord
100
AcDbDimStyleTableRecord
  2
Standard
 70
    0
 40
1
 41
2.5
 42
0.625
 43
0.38
 44
1.25
 45
0
 46
0
 47
0
 48
0
 49
1
140
2.5
141
0.09
142
2.5
143
25.4
144
1
145
0
146
1
147
0.625
148
0
 71
    0
 72
    0
 73
    0
 74
    1
 75
    0
 76
    0
 77
    0
 78
    1
 79
    0
170
    0
171
    2
172
    0
173
    0
174
    0
175
    0
176
    0
177
    0
178
    0
179
    0
271
    2
272
    4
273
    2
274
    2
275
    0
276
    0
277
    2
278
    0
279
    0
280
    0
281
    0
282
    0
283
    1
284
    0
285
    0
286
    0
288
    0
289
    3
340
standard
341

371
   -2
372
   -2
  0
ENDTAB
  0
TABLE
  2
BLOCK_RECORD
  5
1
330
0
100
AcDbSymbolTable
 70
    2
  0
BLOCK_RECORD
  5
1F
330
1
100
AcDbSymbolTableRecord
100
AcDbBlockTableRecord
  2
*Model_Space
 70
    0
280
    1
281
    0
  0
BLOCK_RECORD
  5
1E
330
1
100
AcDbSymbolTableRecord
100
AcDbBlockTableRecord
  2
*Paper_Space
 70
    0
280
    1
281
    0
  0
ENDTAB
  0
ENDSEC
  0
SECTION
  2
BLOCKS
  0
BLOCK
  5
20
330
1F
100
AcDbEntity
  8
0
100
AcDbBlockBegin
  2
*Model_Space
 70
    0
 10
0
 20
0
 30
0
  3
*Model_Space
  1

  0
ENDBLK
  5
21
330
1F
100
AcDbEntity
  8
0
100
AcDbBlockEnd
  0
BLOCK
  5
1C
330
1B
100
AcDbEntity
  8
0
100
AcDbBlockBegin
  2
*Paper_Space
 70
    0
 10
0
 20
0
 30
0
  3
*Paper_Space
  1

  0
ENDBLK
  5
1D
330
1F
100
AcDbEntity
  8
0
100
AcDbBlockEnd
  0
ENDSEC
  0
SECTION
  2
ENTITIES
  0
LWPOLYLINE
  5
4D
100
AcDbEntity
  8
0
  6
ByLayer
 62
  256
370
   -1
100
AcDbPolyline
 90
 1572
 70
    1
 43
0
 10
718.638374
 20
3260.5
 42
-0.2045539999999959
 10
717.9146590000001
 20
3259.753571
 42
-0.06024900000000293
 10
716.347682
 20
3259.308144
 42
-0.03216399999999964
 10
713.7096869999999
 20
3259.063976
 42
-0.006996999999999804
 10
709.138374
 20
3259
 42
0.006997000000000026
 10
704.56706
 20
3258.936024
 42
0.03216399999999987
 10
701.929065
 20
3258.691856
 42
0.06024900000000271
 10
700.3620879999997
 20
3258.246429000001
 42
0.2045540000000359
 10
699.6383739999999
 20
3257.5
 42
-0.1475299999999903
 10
699.1375210000001
 20
3256.853799
 42
-0.07432200000000658
 10
698.2094430000001
 20
3256.382223999999
 42
-0.05394800000000063
 10
696.875017
 20
3256.092274
 42
-0.02654799999999996
 10
695.138374
 20
3256
 42
0.02654799999999974
 10
693.40173
 20
3255.907726
 42
0.05394800000000197
 10
692.0673039999998
 20
3255.617776000001
 42
0.07432200000000658
 10
691.1392259999999
 20
3255.146201
 42
0.1475300000000084
 10
690.6383739999999
 20
3254.5
 42
-0.1493620000000033
 10
690.129464
 20
3253.848242
 42
-0.07477699999999882
 10
689.184652
 20
3253.377721
 42
-0.05327199999999896
 10
687.813032
 20
3253.090626
 42
-0.02497699999999975
 10
686
 20
3253
 42
0.02497699999999975
 10
684.186968
 20
3252.909374
 42
0.05327199999999874
 10
682.815348
 20
3252.622279
 42
0.07477699999999893
 10
681.8705360000001
 20
3252.151758
 42
0.1493619999999906
 10
681.3616260000001
 20
3251.5
 42
-0.1146690000000126
 10
680.973417
 20
3250.926113
 42
-0.06576299999999609
 10
680.2881269999999
 20
3250.440625
 42
-0.06028699999999804
 10
679.426555
 20
3250.11179
 42
-0.06112000000000045
 10
678.515456
 20
3250
 42
0.0573649999999989
 10
677.554739
 20
3249.889413
 42
0.04355000000000094
 10
676.546182
 20
3249.559375
 42
0.04455600000000047
 10
675.642348
 20
3249.074547
 42
0.07430300000000152
 10
675.0000000000002
 20
3248.5
 42
-0.05980600000000599
 10
674.3942870000003
 20
3247.925909
 42
-0.04389900000000094
 10
673.6052329999999
 20
3247.440625
 42
-0.04460099999999854
 10
672.7631100000001
 20
3247.109626
 42
-0.07146100000000583
 10
672
 20
3247
 42
0.07146099999999969
 10
671.23689
 20
3246.890374
 42
0.04460099999999854
 10
670.3947670000002
 20
3246.559374999999
 42
0.04389899999999771
 10
669.6057129999999
 20
3246.074091
 42
0.05980600000000565
 10
668.9999999999999
 20
3245.5
 42
-0.0598060000000042
 10
668.394287
 20
3244.925909
 42
-0.0438989999999976
 10
667.6052329999999
 20
3244.440625000001
 42
-0.04460099999999877
 10
666.7631100000001
 20
3244.109626
 42
-0.07146100000000583
 10
666
 20
3244
 42
0.07146099999999969
 10
665.23689
 20
3243.890374
 42
0.04460099999999854
 10
664.3947670000002
 20
3243.559374999999
 42
0.04389899999999771
 10
663.6057129999999
 20
3243.074091
 42
0.05980600000000565
 10
662.9999999999998
 20
3242.5
 42
-0.05760300000000081
 10
662.3996330000001
 20
3241.925951
 42
-0.04358700000000196
 10
661.626889
 20
3241.440625
 42
-0.04456399999999847
 10
660.808506
 20
3241.109375
 42
-0.07401900000000472
 10
660.073722
 20
3241
 42
0.1245970000000028
 10
659.2108770000001
 20
3240.781594999999
 42
0.0270159999999995
 10
657.8897430000001
 20
3239.971875
 42
0.02658799999999998
 10
656.422113
 20
3238.839806
 42
0.02270999999999993
 10
655
 20
3237.5
 42
-0.029356
 10
653.5398359999999
 20
3236.160509
 42
-0.03104899999999954
 10
651.9588409999999
 20
3235.028125
 42
-0.03267600000000016
 10
650.4842640000002
 20
3234.233744
 42
-0.1076150000000077
 10
649.4108220000001
 20
3234
 42
0.06309400000000331
 10
648.527926
 20
3233.888143
 42
0.06104900000000096
 10
647.690217
 20
3233.559375
 42
0.06611499999999911
 10
647.0214
 20
3233.073803
 42
0.1115530000000044
 10
646.638374
 20
3232.5
 42
-0.1136389999999939
 10
646.2496939999999
 20
3231.92289
 42
-0.06427800000000124
 10
645.561696
 20
3231.428186
 42
-0.05902800000000126
 10
644.6966350000001
 20
3231.085576999999
 42
-0.06022700000000402
 10
643.781385
 20
3230.957652999999
 42
0.09538600000000079
 10
642.7257809999999
 20
3230.734031
 42
0.04148400000000092
 10
641.4500259999999
 20
3230.066816
 42
0.03875199999999963
 10
640.16081
 20
3229.102399
 42
0.039684
 10
639.0469110000001
 20
3227.957653
 42
-0.03787600000000095
 10
637.9536109999999
 20
3226.825928000001
 42
-0.03757799999999852
 10
636.6993569999996
 20
3225.868811
 42
-0.04017199999999931
 10
635.4755789999998
 20
3225.205953000001
 42
-0.1044039999999864
 10
634.5
 20
3225
 42
0.1044040000000075
 10
633.524421
 20
3224.794047
 42
0.04017199999999931
 10
632.3006430000004
 20
3224.131189
 42
0.03757799999999874
 10
631.0463890000003
 20
3223.174071999999
 42
0.0378759999999994
 10
629.9530890000001
 20
3222.042347
 42
-0.03649399999999987
 10
628.8627729999999
 20
3220.90746
 42
-0.03631000000000014
 10
627.617281
 20
3219.941065
 42
-0.03871300000000032
 10
626.4058219999999
 20
3219.263572
 42
-0.1033419999999979
 10
625.4461669999999
 20
3219.042347
 42
0.1090460000000054
 10
624.4307120000001
 20
3218.796161
 42
0.03040799999999918
 10
622.9991490000001
 20
3217.984313999999
 42
0.02915100000000027
 10
621.4495879999998
 20
3216.842688
 42
0.02694900000000012
 10
619.9999999999999
 20
3215.5
 42
-0.02186299999999985
 10
618.582645
 20
3214.160142
 42
-0.0259320000000001
 10
617.129246
 20
3213.028125
 42
-0.02613199999999958
 10
615.826693
 20
3212.215799
 42
-0.1270190000000129
 10
614.9909239999999
 20
3212
 42
0.1178670000000055
 10
614.1806389999999
 20
3211.806297
 42
0.02991700000000042
 10
613.0048089999999
 20
3211.11875
 42
0.02882300000000003
 10
611.719064
 20
3210.148273
 42
0.02566100000000007
 10
610.5000000000002
 20
3209
 42
-0.02579900000000052
 10
609.2802660000002
 20
3207.851733
 42
-0.02891799999999966
 10
607.9925249999999
 20
3206.88125
 42
-0.03003799999999959
 10
606.8139979999997
 20
3206.193981
 42
-0.117507999999984
 10
606
 20
3206
 42
0.1175080000000135
 10
605.186002
 20
3205.806019
 42
0.03003799999999959
 10
604.0074750000001
 20
3205.11875
 42
0.02891799999999999
 10
602.7197339999998
 20
3204.148267
 42
0.02579900000000052
 10
601.4999999999998
 20
3203
 42
-0.02579900000000007
 10
600.2802659999999
 20
3201.851733
 42
-0.02891799999999988
 10
598.9925249999998
 20
3200.88125
 42
-0.03003799999999959
 10
597.8139979999997
 20
3200.193981
 42
-0.117507999999984
 10
597
 20
3200
 42
0.1175080000000135
 10
596.186002
 20
3199.806019
 42
0.03003799999999959
 10
595.0074750000001
 20
3199.11875
 42
0.02891799999999999
 10
593.7197339999998
 20
3198.148267
 42
0.02579900000000052
 10
592.4999999999997
 20
3197
 42
-0.02479199999999968
 10
591.2849090000001
 20
3195.851482999999
 42
-0.02818500000000077
 10
590.0110040000003
 20
3194.880419
 42
-0.02910200000000039
 10
588.851082
 20
3194.190213
 42
-0.119759999999984
 10
588.062909
 20
3193.99717
 42
0.1580150000000119
 10
587.1487700000001
 20
3193.699046
 42
0.01191300000000001
 10
585.0497290000001
 20
3192.095008
 42
0.01551300000000002
 10
582.603708
 20
3190.003782
 42
0.01114900000000004
 10
580
 20
3187.525701
 42
-0.01328300000000002
 10
577.2231050000001
 20
3184.905276
 42
-0.02131500000000008
 10
574.7057840000002
 20
3182.839343
 42
-0.02171000000000016
 10
572.595983
 20
3181.39226
 42
-0.1369629999999865
 10
571.356989
 20
3181.028531
 42
0.06414200000000032
 10
570.494677
 20
3180.905762
 42
0.06074099999999979
 10
569.6744029999999
 20
3180.567756
 42
0.06530400000000346
 10
569.0174119999999
 20
3180.075917
 42
0.1082570000000046
 10
568.6383739999999
 20
3179.5
 42
-0.1058500000000035
 10
568.2647149999999
 20
3178.926329
 42
-0.06659299999999678
 10
567.6252339999999
 20
3178.440625
 42
-0.06237899999999925
 10
566.830181
 20
3178.111968
 42
-0.06694700000000062
 10
565.9976809999999
 20
3178
 42
0.1014219999999926
 10
565.003328
 20
3177.796206
 42
0.03409300000000117
 10
563.6777629999998
 20
3177.118750000001
 42
0.03228399999999985
 10
562.2745519999999
 20
3176.148073
 42
0.0317720000000004
 10
560.9999999999997
 20
3175
 42
-0.02591799999999956
 10
559.7548499999999
 20
3173.851747
 42
-0.02880800000000012
 10
558.4390810000001
 20
3172.88125
 42
-0.02993300000000029
 10
557.2343219999999
 20
3172.194546000001
 42
-0.1150579999999779
 10
556.400088
 20
3172
 42
0.1448119999999948
 10
555.4814449999998
 20
3171.72824
 42
0.01847200000000024
 10
553.776778
 20
3170.53125
 42
0.02037799999999975
 10
551.8176720000002
 20
3168.914723
 42
0.01566499999999995
 10
549.8110140000001
 20
3167
 42
-0.01686100000000005
 10
547.7948720000004
 20
3165.08542
 42
-0.02152700000000023
 10
545.8070870000003
 20
3163.46875
 42
-0.02008500000000018
 10
544.0687940000003
 20
3162.280569999999
 42
-0.14077500000001
 10
543.092024
 20
3162
 42
0.1537640000000174
 10
542.093451
 20
3161.685474
 42
0.01725499999999998
 10
540.1679690000001
 20
3160.2375
 42
0.01965599999999991
 10
537.9502209999999
 20
3158.297881
 42
0.01475400000000001
 10
535.6615720000001
 20
3156
 42
-0.01471999999999996
 10
533.373227
 20
3153.702114
 42
-0.01962099999999969
 10
531.1564009999997
 20
3151.7625
 42
-0.01720599999999983
 10
529.2319490000001
 20
3150.31418
 42
-0.1538840000000132
 10
528.23529
 20
3150
 42
0.153711000000008
 10
527.212346
 20
3149.677915
 42
0.01452699999999994
 10
525.0765340000003
 20
3148.090625
 42
0.01751599999999991
 10
522.598247
 20
3145.989593
 42
0.01290900000000005
 10
519.9999999999999
 20
3143.5
 42
-0.01147700000000011
 10
517.4163319999999
 20
3141.010145
 42
-0.01592999999999994
 10
514.9825889999997
 20
3138.909375
 42
-0.01239299999999978
 10
512.8921280000001
 20
3137.302127999999
 42
-0.1589870000000416
 10
511.96598
 20
3137
 42
0.1188620000000052
 10
511.165914
 20
3136.807079
 42
0.02957899999999932
 10
509.997482
 20
3136.11875
 42
0.02855900000000021
 10
508.7172229999998
 20
3135.148289
 42
0.02528000000000028
 10
507.4999999999998
 20
3134
 42
-0.02678299999999971
 10
506.2754919999999
 20
3132.851773
 42
-0.02957600000000048
 10
504.973535
 20
3131.88125
 42
-0.03087099999999929
 10
503.7757109999999
 20
3131.195875
 42
-0.1150010000000062
 10
502.935354
 20
3131
 42
0.07369499999999
 10
502.1970810000001
 20
3130.890592
 42
0.04457200000000151
 10
501.375777
 20
3130.559375
 42
0.0436289999999987
 10
500.601026
 20
3130.074054
 42
0.05787600000000269
 10
499.9999999999999
 20
3129.5
 42
-0.05724100000000051
 10
499.4005089999999
 20
3128.925958
 42
-0.04352999999999838
 10
498.6304259999999
 20
3128.440625
 42
-0.04455200000000035
 10
497.815918
 20
3128.10933
 42
-0.07445199999999901
 10
497.085763
 20
3128
 42
0.1392169999999645
 10
496.1843500000001
 20
3127.744056
 42
0.02085100000000029
 10
494.6094649999999
 20
3126.678125
 42
0.02208199999999998
 10
492.8132780000001
 20
3125.223065
 42
0.01744099999999995
 10
491
 20
3123.5
 42
-0.0182
 10
489.1812839999999
 20
3121.77701
 42
-0.02277099999999997
 10
487.3687080000002
 20
3120.321875
 42
-0.02181700000000022
 10
485.773897
 20
3119.260323
 42
-0.1367569999999924
 10
484.83993
 20
3119
 42
0.1222349999999851
 10
483.9508109999999
 20
3118.779341
 42
0.02776600000000063
 10
482.609972
 20
3117.971875
 42
0.02714799999999952
 10
481.1264300000003
 20
3116.839759999999
 42
0.02347599999999975
 10
479.6971189999999
 20
3115.5
 42
-0.02159599999999997
 10
478.2784139999999
 20
3114.160126
 42
-0.02570600000000019
 10
476.8265850000003
 20
3113.028124999999
 42
-0.02583200000000077
 10
475.5272750000001
 20
3112.214985
 42
-0.1275699999999946
 10
474.698373
 20
3112
 42
0.1543139999999787
 10
473.7780220000001
 20
3111.709024
 42
0.01367499999999996
 10
471.8006819999999
 20
3110.2375
 42
0.01685100000000002
 10
469.502055
 20
3108.298163
 42
0.01233199999999999
 10
467.0801240000002
 20
3106
 42
-0.01406400000000023
 10
464.641638
 20
3103.70212
 42
-0.01869200000000003
 10
462.2925749999999
 20
3101.7625
 42
-0.01619999999999992
 10
460.2615700000001
 20
3100.311199
 42
-0.1480790000000297
 10
459.233821
 20
3100
 42
0.1140649999999892
 10
458.3632970000001
 20
3099.798789
 42
0.03759499999999957
 10
457.2224529999999
 20
3099.131189000001
 42
0.03517500000000097
 10
456.0266529999997
 20
3098.174183000001
 42
0.03329600000000035
 10
454.9530889999999
 20
3097.042347
 42
-0.03532500000000033
 10
453.8667690000001
 20
3095.906322
 42
-0.03550500000000065
 10
452.633095
 20
3094.936629
 42
-0.03781799999999966
 10
451.438383
 20
3094.253254
 42
-0.1041900000000129
 10
450.5
 20
3094.027247999999
 42
0.1716850000000045
 10
449.1344930000001
 20
3093.499552
 42
0.005765000000000045
 10
444.7184340000001
 20
3089.62361
 42
0.00952099999999995
 10
439.2841190000001
 20
3084.551629
 42
0.004852000000000065
 10
432.6417289999998
 20
3077.984902
 42
-0.005020000000000036
 10
426.4405629999994
 20
3071.85849
 42
-0.007725000000000119
 10
420.9410879999996
 20
3066.695565
 42
-0.003280999999999981
 10
416.177602
 20
3062.416893
 42
-0.1833310000000028
 10
415.078821
 20
3062
 42
0.1144629999999906
 10
414.2327030000001
 20
3061.80373
 42
0.03104699999999987
 10
413.030629
 20
3061.11875
 42
0.02971699999999997
 10
411.7255549999999
 20
3060.148219
 42
0.0269980000000002
 10
410.5000000000001
 20
3059
 42
-0.02579900000000029
 10
409.2802660000002
 20
3057.851733
 42
-0.0289180000000001
 10
407.9925249999999
 20
3056.88125
 42
-0.03003799999999959
 10
406.813998
 20
3056.193981
 42
-0.1175079999999993
 10
406
 20
3056
 42
0.1175079999999784
 10
405.1860020000002
 20
3055.806018999999
 42
0.03003799999999926
 10
404.0074750000001
 20
3055.11875
 42
0.02891800000000021
 10
402.7197339999998
 20
3054.148267
 42
0.02579900000000029
 10
401.4999999999997
 20
3053
 42
-0.02509899999999949
 10
400.2836499999999
 20
3051.851703
 42
-0.02843300000000016
 10
399.005995
 20
3050.88125
 42
-0.02941600000000019
 10
397.841063
 20
3050.192541
 42
-0.1193389999999887
 10
397.045855
 20
3050
 42
0.1763210000000064
 10
396.0558349999999
 20
3049.639676
 42
0.005432999999999973
 10
392.7087749999999
 20
3046.76875
 42
0.01005800000000007
 10
388.8166629999999
 20
3043.21523
 42
0.006720999999999986
 10
384.4999999999999
 20
3039
 42
-0.006510999999999826
 10
380.186874
 20
3034.784692
 42
-0.009777000000000145
 10
376.3057689999999
 20
3031.23125
 42
-0.00515200000000015
 10
372.9660239999999
 20
3028.351942
 42
-0.1771160000000026
 10
372.003657
 20
3028
 42
0.1821979999999667
 10
371.0179570000002
 20
3027.628481
 42
0.003397999999999988
 10
366.818147
 20
3023.8875
 42
0.007854999999999985
 10
361.9660500000001
 20
3019.365613
 42
0.005114999999999968
 10
356.5000000000002
 20
3014
 42
-0.005675999999999996
 10
351.021942
 20
3008.634663
 42
-0.008637999999999995
 10
346.132307
 20
3004.1125
 42
-0.004077000000000091
 10
341.9114890000001
 20
3000.403496999999
 42
-0.1801080000000439
 10
340.827674
 20
2999.999999999999
 42
0.1868579999999796
 10
338.6064780000002
 20
2999.13987
 42
0.01258899999999996
 10
333.6072089999999
 20
2994.349247
 42
0.01265499999999999
 10
328.8576769999999
 20
2989.314152
 42
0.1847889999999983
 10
328.0000000000001
 20
2987.072711
 42
-0.166147999999993
 10
327.6682719999999
 20
2986.10198
 42
-0.009390999999999886
 10
325.6499999999999
 20
2983.592629
 42
-0.01357399999999987
 10
323.0649109999999
 20
2980.664669
 42
-0.009477000000000223
 10
320.0000000000001
 20
2977.5
 42
0.009658999999999961
 10
316.9351340000001
 20
2974.333071
 42
0.01379499999999997
 10
314.3499999999999
 20
2971.398152
 42
0.009662999999999981
 10
312.335732
 20
2968.882702
 42
0.1654549999999995
 10
312.0000000000001
 20
2967.895905
 42
-0.07512200000000238
 10
311.890741
 20
2967.172799
 42
-0.04452899999999931
 10
311.5593749999999
 20
2966.364189
 42
-0.04343899999999925
 10
311.0740329999998
 20
2965.598157
 42
-0.0566869999999958
 10
310.4999999999997
 20
2965
 42
0.0598060000000042
 10
309.9259089999997
 20
2964.394287
 42
0.04389900000000116
 10
309.440625
 20
2963.605233
 42
0.04460099999999977
 10
309.1096259999999
 20
2962.76311
 42
0.07146100000000091
 10
308.9999999999999
 20
2962
 42
-0.07146099999999958
 10
308.8903739999999
 20
2961.23689
 42
-0.04460099999999921
 10
308.5593749999999
 20
2960.394767
 42
-0.04389900000000049
 10
308.0740910000002
 20
2959.605713
 42
-0.05980600000000264
 10
307.5000000000001
 20
2959
 42
0.0598060000000003
 10
306.9259090000001
 20
2958.394287
 42
0.04389899999999915
 10
306.4406250000001
 20
2957.605233
 42
0.04460099999999965
 10
306.109626
 20
2956.76311
 42
0.07146100000000091
 10
306.0000000000001
 20
2956
 42
-0.07146100000000091
 10
305.8903740000001
 20
2955.23689
 42
-0.0446010000000001
 10
305.5593749999999
 20
2954.394767
 42
-0.04389899999999915
 10
305.0740909999999
 20
2953.605713
 42
-0.05980599999999974
 10
304.5000000000001
 20
2953
 42
0.1058479999999935
 10
303.9125180000001
 20
2952.254129
 42
0.04143499999999972
 10
303.431994
 20
2951.027725
 42
0.03795000000000007
 10
303.1085
 20
2949.544534
 42
0.03473399999999992
 10
303.0000000000001
 20
2947.984544
 42
-0.028495
 10
302.9057769999999
 20
2946.332552
 42
-0.05464999999999903
 10
302.6123809999999
 20
2945.039596
 42
-0.07365900000000063
 10
302.1395630000003
 20
2944.130028
 42
-0.1455020000000357
 10
301.5000000000002
 20
2943.638374
 42
0.1668799999999943
 10
300.8081559999999
 20
2943.059039
 42
0.07448200000000312
 10
300.3459339999999
 20
2941.948093
 42
0.04611399999999991
 10
300.0786069999999
 20
2940.219368
 42
0.015316
 10
300
 20
2937.65383
 42
-0.01858399999999987
 10
299.9090860000001
 20
2935.208712
 42
-0.03686600000000011
 10
299.6231320000001
 20
2933.291088
 42
-0.04783900000000058
 10
299.1573110000002
 20
2931.872767
 42
-0.1168110000000052
 10
298.5000000000001
 20
2931
 42
0.1572919999999969
 10
297.736932
 20
2929.799078
 42
0.03683699999999996
 10
297.3038
 20
2927.423909
 42
0.02191399999999992
 10
297.063038
 20
2923.60221
 42
0.004773999999999987
 10
297
 20
2917
 42
0.004773999999999987
 10
297.063038
 20
2910.39779
 42
0.02191400000000003
 10
297.3038
 20
2906.576091
 42
0.03683699999999996
 10
297.7369320000001
 20
2904.200922
 42
0.1572919999999922
 10
298.5000000000002
 20
2903
 42
-0.113395000000003
 10
299.1408950000002
 20
2902.160863
 42
-0.04688900000000052
 10
299.610276
 20
2900.802528
 42
-0.03783199999999975
 10
299.9045939999999
 20
2899.017074
 42
-0.02193999999999968
 10
299.9999999999999
 20
2896.843852
 42
0.02323300000000018
 10
300.1265989999999
 20
2894.120786
 42
0.06820100000000048
 10
300.5519889999998
 20
2892.29666
 42
0.07523300000000299
 10
301.4252499999998
 20
2890.755372
 42
0.03278499999999993
 10
302.9999999999999
 20
2889
 42
-0.03756400000000003
 10
304.7244620000001
 20
2887.040435
 42
-0.09444700000000111
 10
305.562527
 20
2885.341396
 42
-0.05916800000000028
 10
305.918643
 20
2883.012004
 42
-0.008377000000000061
 10
306
 20
2878.156148
 42
0.00988300000000005
 10
306.075909
 20
2874.31625
 42
0.03072200000000004
 10
306.33674
 20
2871.741445
 42
0.0466249999999999
 10
306.789228
 20
2870.009611
 42
0.1331090000000082
 10
307.5
 20
2869
 42
-0.1360570000000103
 10
308.2181100000002
 20
2867.967312
 42
-0.04578700000000021
 10
308.668394
 20
2866.171348
 42
-0.02957800000000005
 10
308.926082
 20
2863.467229
 42
-0.00896799999999996
 10
309
 20
2859.34617
 42
0.007642000000000215
 10
309.0653500000001
 20
2855.070896
 42
0.03372800000000004
 10
309.3117080000001
 20
2852.565041
 42
0.06257199999999918
 10
309.7594900000001
 20
2851.066726
 42
0.1998489999999875
 10
310.5000000000001
 20
2850.361626
 42
-0.1647210000000103
 10
311.187788
 20
2849.790589
 42
-0.07485499999999773
 10
311.6509359999999
 20
2848.701033
 42
-0.047006
 10
311.9201880000001
 20
2847.017235
 42
-0.016157
 10
312.0000000000001
 20
2844.547999
 42
0.01903399999999995
 10
312.100448
 20
2841.910231
 42
0.05013600000000006
 10
312.431842
 20
2840.050163
 42
0.06825400000000066
 10
313.0432489999998
 20
2838.654131
 42
0.07165700000000234
 10
313.9999999999997
 20
2837.5
 42
-0.07846699999999722
 10
315.00608
 20
2836.252352
 42
-0.07317300000000121
 10
315.608639
 20
2834.725702
 42
-0.04564799999999988
 10
315.915296
 20
2832.527445
 42
-0.01184400000000016
 10
316.0000000000001
 20
2828.952001
 42
0.01073499999999998
 10
316.0712770000001
 20
2825.632625
 42
0.03985900000000011
 10
316.3270110000001
 20
2823.55743
 42
0.06994899999999904
 10
316.7825779999999
 20
2822.277552
 42
0.1826820000000212
 10
317.4999999999999
 20
2821.638374
 42
-0.1845769999999879
 10
318.2201409999999
 20
2820.992021
 42
-0.06923699999999985
 10
318.6748940000001
 20
2819.6901
 42
-0.0391470000000001
 10
318.9294620000001
 20
2817.570648
 42
-0.01032100000000001
 10
319
 20
2814.15383
 42
0.01231799999999981
 10
319.080737
 20
2810.877034
 42
0.03317700000000016
 10
319.3493240000001
 20
2808.563948
 42
0.047897999999999
 10
319.8065730000001
 20
2806.959647
 42
0.12684800000001
 10
320.4999999999998
 20
2806
 42
-0.1158609999999949
 10
321.1530409999999
 20
2805.136275
 42
-0.04763699999999987
 10
321.619801
 20
2803.734738
 42
-0.03716099999999994
 10
321.907904
 20
2801.853826
 42
-0.01942800000000004
 10
322
 20
2799.484544
 42
0.01599099999999993
 10
322.079577
 20
2796.996985
 42
0.04683499999999983
 10
322.348453
 20
2795.304626
 42
0.07478900000000234
 10
322.811422
 20
2794.211003
 42
0.1651339999999775
 10
323.5000000000001
 20
2793.638374
 42
-0.1845770000000139
 10
324.220141
 20
2792.992021
 42
-0.06923699999999919
 10
324.6748939999999
 20
2791.6901
 42
-0.03914699999999999
 10
324.9294620000001
 20
2789.570648
 42
-0.0103209999999999
 10
325
 20
2786.15383
 42
0.01231799999999981
 10
325.080737
 20
2782.877034
 42
0.03317700000000016
 10
325.3493240000001
 20
2780.563948
 42
0.047897999999999
 10
325.8065730000001
 20
2778.959647
 42
0.12684800000001
 10
326.4999999999999
 20
2778
 42
-0.1268480000000022
 10
327.1934269999998
 20
2777.040353
 42
-0.04789799999999911
 10
327.6506759999999
 20
2775.436052
 42
-0.03317699999999994
 10
327.919263
 20
2773.122966
 42
-0.01231799999999981
 10
328
 20
2769.84617
 42
0.01032100000000001
 10
328.0705379999999
 20
2766.429352
 42
0.03914699999999977
 10
328.3251059999999
 20
2764.3099
 42
0.06923700000000052
 10
328.779859
 20
2763.007979
 42
0.1845769999999829
 10
329.5000000000002
 20
2762.361626
 42
-0.1830450000000306
 10
330.2179480000002
 20
2761.721073
 42
-0.06981500000000107
 10
330.673359
 20
2760.437004
 42
-0.03972199999999983
 10
330.928867
 20
2758.353378
 42
-0.0106539999999999
 10
331
 20
2755.015456
 42
0.01273599999999985
 10
331.081508
 20
2751.816005
 42
0.03352699999999992
 10
331.351354
 20
2749.539201
 42
0.04801400000000007
 10
331.8093040000001
 20
2747.952321
 42
0.1259509999999891
 10
332.5000000000003
 20
2747
 42
-0.1123280000000097
 10
333.13507
 20
2746.172113
 42
-0.04644799999999977
 10
333.6056869999999
 20
2744.832361
 42
-0.03806599999999984
 10
333.9030399999999
 20
2743.088428
 42
-0.02320099999999996
 10
334
 20
2741
 42
0.02320100000000007
 10
334.0969600000001
 20
2738.911572
 42
0.03806599999999973
 10
334.3943130000001
 20
2737.167639
 42
0.04644799999999988
 10
334.86493
 20
2735.827887
 42
0.1123280000000036
 10
335.4999999999998
 20
2735
 42
-0.1256389999999945
 10
336.1897250000001
 20
2734.050247
 42
-0.04804900000000047
 10
336.647923
 20
2732.469399
 42
-0.03364899999999988
 10
336.918218
 20
2730.20519
 42
-0.01288600000000002
 10
337.0000000000001
 20
2727.032543
 42
0.01189399999999994
 10
337.084833
 20
2723.466896
 42
0.045698
 10
337.3916859999998
 20
2721.272072
 42
0.0731440000000025
 10
337.9943149999999
 20
2719.746787
 42
0.07839399999999848
 10
338.9999999999998
 20
2718.5
 42
-0.06955199999999631
 10
339.9324909999999
 20
2717.384675
 42
-0.06518500000000083
 10
340.5483100000001
 20
2716.032231
 42
-0.05112399999999991
 10
340.89214
 20
2714.290852
 42
-0.02319899999999992
 10
340.9999999999999
 20
2711.967457
 42
0.02347899999999992
 10
341.097293
 20
2709.896668
 42
0.03810899999999982
 10
341.3953070000001
 20
2708.16139
 42
0.04634599999999978
 10
341.8661900000002
 20
2706.825495
 42
0.1121059999999925
 10
342.5000000000002
 20
2706
 42
-0.1158610000000028
 10
343.153041
 20
2705.136275
 42
-0.04763700000000032
 10
343.619801
 20
2703.734738
 42
-0.03716099999999994
 10
343.9079039999999
 20
2701.853826
 42
-0.01942800000000004
 10
344
 20
2699.484544
 42
0.01599099999999993
 10
344.079577
 20
2696.996985
 42
0.04683499999999983
 10
344.348453
 20
2695.304626
 42
0.07478900000000234
 10
344.811422
 20
2694.211003
 42
0.1651339999999775
 10
345.5000000000001
 20
2693.638374
 42
-0.1845770000000139
 10
346.220141
 20
2692.992021
 42
-0.06923699999999919
 10
346.6748939999999
 20
2691.6901
 42
-0.03914699999999999
 10
346.9294620000001
 20
2689.570648
 42
-0.0103209999999999
 10
347
 20
2686.15383
 42
0.01231799999999981
 10
347.080737
 20
2682.877034
 42
0.03317700000000016
 10
347.3493240000001
 20
2680.563948
 42
0.047897999999999
 10
347.8065730000001
 20
2678.959647
 42
0.12684800000001
 10
348.4999999999998
 20
2678
 42
-0.1158609999999949
 10
349.1530409999999
 20
2677.136275
 42
-0.04763699999999987
 10
349.619801
 20
2675.734738
 42
-0.03716099999999994
 10
349.907904
 20
2673.853826
 42
-0.01942800000000004
 10
350
 20
2671.484544
 42
0.01599099999999993
 10
350.079577
 20
2668.996985
 42
0.04683499999999983
 10
350.348453
 20
2667.304626
 42
0.07478900000000234
 10
350.811422
 20
2666.211003
 42
0.1651339999999775
 10
351.5000000000001
 20
2665.638374
 42
-0.1845770000000139
 10
352.220141
 20
2664.992021
 42
-0.06923699999999919
 10
352.6748939999999
 20
2663.6901
 42
-0.03914699999999999
 10
352.9294620000001
 20
2661.570648
 42
-0.0103209999999999
 10
353
 20
2658.15383
 42
0.01231799999999981
 10
353.080737
 20
2654.877034
 42
0.03317700000000016
 10
353.3493240000001
 20
2652.563948
 42
0.047897999999999
 10
353.8065730000001
 20
2650.959647
 42
0.12684800000001
 10
354.4999999999999
 20
2650
 42
-0.112328000000005
 10
355.13507
 20
2649.172113
 42
-0.04644799999999988
 10
355.6056869999999
 20
2647.832361
 42
-0.03806599999999984
 10
355.9030399999999
 20
2646.088428
 42
-0.02320099999999996
 10
356
 20
2644
 42
0.02320100000000007
 10
356.0969600000001
 20
2641.911572
 42
0.03806599999999973
 10
356.3943130000001
 20
2640.167639
 42
0.04644799999999988
 10
356.86493
 20
2638.827887
 42
0.1123280000000036
 10
357.5
 20
2638
 42
-0.1258510000000027
 10
358.190384
 20
2637.048504
 42
-0.04802499999999972
 10
358.648414
 20
2635.463567
 42
-0.03356600000000015
 10
358.918404
 20
2633.190819
 42
-0.01278400000000019
 10
359
 20
2630
 42
0.01278399999999986
 10
359.081596
 20
2626.809181
 42
0.03356600000000004
 10
359.3515859999999
 20
2624.536433
 42
0.04802499999999983
 10
359.8096159999999
 20
2622.951496
 42
0.1258510000000099
 10
360.4999999999996
 20
2622
 42
-0.09708399999998785
 10
361.0759079999998
 20
2621.294359
 42
-0.04177799999999998
 10
361.5593749999999
 20
2620.174168
 42
-0.03927299999999991
 10
361.889153
 20
2618.857577
 42
-0.04175500000000016
 10
362.0000000000001
 20
2617.532543
 42
0.04763200000000007
 10
362.137618
 20
2616.091224
 42
0.04700699999999962
 10
362.5455700000001
 20
2614.695309
 42
0.04910200000000003
 10
363.1825449999998
 20
2613.460963
 42
0.06527000000000265
 10
363.9999999999998
 20
2612.5
 42
-0.08552399999999899
 10
365.0372190000002
 20
2611.176176
 42
-0.07443600000000222
 10
365.6341610000002
 20
2609.517037
 42
-0.04097400000000002
 10
365.9254000000001
 20
2606.992803
 42
-0.008241999999999644
 10
366
 20
2602.467457
 42
0.00929199999999996
 10
366.074637
 20
2598.451793
 42
0.02999999999999999
 10
366.333456
 20
2595.796055
 42
0.04611199999999989
 10
366.7845549999999
 20
2594.024166
 42
0.1349660000000078
 10
367.4999999999997
 20
2593
 42
-0.1225509999999885
 10
368.1795979999998
 20
2592.076061
 42
-0.04826299999999933
 10
368.6402939999999
 20
2590.55364
 42
-0.03483500000000013
 10
368.915353
 20
2588.412343
 42
-0.01452900000000008
 10
369
 20
2585.5
 42
0.01452899999999997
 10
369.0846470000001
 20
2582.587657
 42
0.03483499999999969
 10
369.3597060000001
 20
2580.44636
 42
0.04826299999999945
 10
369.8204020000002
 20
2578.923939
 42
0.1225509999999885
 10
370.5000000000003
 20
2578
 42
-0.1168110000000065
 10
371.1573110000001
 20
2577.127233
 42
-0.04783900000000024
 10
371.6231320000001
 20
2575.708912
 42
-0.03686600000000011
 10
371.909086
 20
2573.791288
 42
-0.01858399999999998
 10
372
 20
2571.34617
 42
0.01531600000000012
 10
372.0786069999999
 20
2568.780632
 42
0.04611400000000013
 10
372.3459339999999
 20
2567.051907
 42
0.07448200000000134
 10
372.8081560000001
 20
2565.940961
 42
0.1668799999999608
 10
373.5000000000002
 20
2565.361626
 42
-0.1651340000000072
 10
374.1885780000002
 20
2564.788997
 42
-0.07478900000000323
 10
374.6515470000001
 20
2563.695374
 42
-0.04683499999999983
 10
374.920423
 20
2562.003015
 42
-0.01599099999999993
 10
375
 20
2559.515456
 42
0.01942800000000004
 10
375.092096
 20
2557.146174
 42
0.03716099999999994
 10
375.3801989999999
 20
2555.265262
 42
0.04763700000000043
 10
375.846959
 20
2553.863725
 42
0.115861000000001
 10
376.5000000000001
 20
2553
 42
-0.1268480000000048
 10
377.1934269999999
 20
2552.040353
 42
-0.04789799999999944
 10
377.650676
 20
2550.436052
 42
-0.03317700000000005
 10
377.919263
 20
2548.122966
 42
-0.01231799999999981
 10
378
 20
2544.84617
 42
0.01032100000000001
 10
378.0705379999999
 20
2541.429352
 42
0.03914699999999977
 10
378.3251059999999
 20
2539.3099
 42
0.06923700000000052
 10
378.779859
 20
2538.007979
 42
0.1845769999999829
 10
379.5000000000002
 20
2537.361626
 42
-0.1830450000000306
 10
380.2179480000002
 20
2536.721073
 42
-0.06981500000000107
 10
380.673359
 20
2535.437004
 42
-0.03972199999999983
 10
380.928867
 20
2533.353378
 42
-0.0106539999999999
 10
381
 20
2530.015456
 42
0.01273599999999985
 10
381.081508
 20
2526.816005
 42
0.03352699999999992
 10
381.351354
 20
2524.539201
 42
0.04801400000000007
 10
381.8093040000001
 20
2522.952321
 42
0.1259509999999891
 10
382.5000000000002
 20
2522
 42
-0.09777800000000221
 10
383.0759629999999
 20
2521.292309
 42
-0.0416369999999995
 10
383.5593749999999
 20
2520.164608
 42
-0.03911499999999966
 10
383.889157
 20
2518.837486
 42
-0.0413660000000002
 10
384
 20
2517.5
 42
0.04136600000000031
 10
384.1108429999999
 20
2516.162514
 42
0.03911499999999977
 10
384.4406250000001
 20
2514.835392
 42
0.04163699999999916
 10
384.9240370000001
 20
2513.707691
 42
0.09777800000000524
 10
385.4999999999998
 20
2513
 42
-0.1251989999999954
 10
386.1883450000001
 20
2512.053871
 42
-0.04809500000000055
 10
386.646891
 20
2510.481464
 42
-0.03381999999999998
 10
386.9178279999999
 20
2508.23491
 42
-0.01310299999999978
 10
387
 20
2505.099796
 42
0.01184099999999982
 10
387.083833
 20
2501.560347
 42
0.04684699999999967
 10
387.3894540000001
 20
2499.406991
 42
0.07616399999999941
 10
387.991959
 20
2497.927144
 42
0.0811820000000029
 10
388.9999999999998
 20
2496.732028
 42
-0.07271599999999773
 10
389.9466679999998
 20
2495.647263
 42
-0.06963799999999908
 10
390.5600989999998
 20
2494.321256
 42
-0.05238999999999958
 10
390.896597
 20
2492.567396
 42
-0.02122199999999977
 10
390.9999999999999
 20
2490.132232
 42
0.022126
 10
391.095639
 20
2487.972014
 42
0.03787100000000002
 10
391.390408
 20
2486.192918
 42
0.04682600000000002
 10
391.8599740000002
 20
2484.837438
 42
0.1132319999999923
 10
392.5000000000002
 20
2484
 42
-0.1158610000000028
 10
393.153041
 20
2483.136275
 42
-0.04763700000000032
 10
393.619801
 20
2481.734738
 42
-0.03716099999999994
 10
393.9079039999999
 20
2479.853826
 42
-0.01942800000000004
 10
394
 20
2477.484544
 42
0.01599099999999993
 10
394.079577
 20
2474.996985
 42
0.04683499999999983
 10
394.348453
 20
2473.304626
 42
0.07478900000000234
 10
394.811422
 20
2472.211003
 42
0.1651339999999775
 10
395.5000000000001
 20
2471.638374
 42
-0.1845770000000139
 10
396.220141
 20
2470.992021
 42
-0.06923699999999919
 10
396.6748939999999
 20
2469.6901
 42
-0.03914699999999999
 10
396.9294620000001
 20
2467.570648
 42
-0.0103209999999999
 10
397
 20
2464.15383
 42
0.01231799999999981
 10
397.080737
 20
2460.877034
 42
0.03317700000000016
 10
397.3493240000001
 20
2458.563948
 42
0.047897999999999
 10
397.8065730000001
 20
2456.959647
 42
0.12684800000001
 10
398.4999999999998
 20
2456
 42
-0.1158609999999949
 10
399.1530409999999
 20
2455.136275
 42
-0.04763699999999987
 10
399.619801
 20
2453.734738
 42
-0.03716099999999994
 10
399.907904
 20
2451.853826
 42
-0.01942800000000004
 10
400
 20
2449.484544
 42
0.01599099999999993
 10
400.079577
 20
2446.996985
 42
0.04683499999999983
 10
400.348453
 20
2445.304626
 42
0.07478900000000234
 10
400.811422
 20
2444.211003
 42
0.1651339999999775
 10
401.5000000000001
 20
2443.638374
 42
-0.1688000000000046
 10
402.195312
 20
2443.051703
 42
-0.07409099999999953
 10
402.6567190000001
 20
2441.921437
 42
-0.04532700000000035
 10
402.922417
 20
2440.152359
 42
-0.01462199999999994
 10
403
 20
2437.5
 42
0.01462200000000006
 10
403.0775830000001
 20
2434.847641
 42
0.04532700000000012
 10
403.3432809999999
 20
2433.078563
 42
0.07409100000000143
 10
403.804688
 20
2431.948297
 42
0.1687999999999831
 10
404.5000000000001
 20
2431.361626
 42
-0.165133999999994
 10
405.1885780000001
 20
2430.788997
 42
-0.07478900000000278
 10
405.6515470000001
 20
2429.695374
 42
-0.04683499999999983
 10
405.920423
 20
2428.003015
 42
-0.01599099999999993
 10
406
 20
2425.515456
 42
0.01942800000000004
 10
406.092096
 20
2423.146174
 42
0.03716099999999994
 10
406.3801989999999
 20
2421.265262
 42
0.04763700000000043
 10
406.846959
 20
2419.863725
 42
0.115861000000001
 10
407.5
 20
2419
 42
-0.1360569999999988
 10
408.2181100000001
 20
2417.967312
 42
-0.0457870000000001
 10
408.668394
 20
2416.171348
 42
-0.02957800000000005
 10
408.926082
 20
2413.467229
 42
-0.00896799999999996
 10
409
 20
2409.34617
 42
0.007642000000000215
 10
409.06535
 20
2405.070896
 42
0.03372799999999981
 10
409.3117080000001
 20
2402.565041
 42
0.06257200000000007
 10
409.75949
 20
2401.066726
 42
0.1998489999999979
 10
410.5000000000001
 20
2400.361626
 42
-0.1647210000000157
 10
411.187788
 20
2399.790589
 42
-0.07485499999999773
 10
411.6509359999999
 20
2398.701033
 42
-0.047006
 10
411.9201880000001
 20
2397.017235
 42
-0.016157
 10
412.0000000000001
 20
2394.547999
 42
0.01903399999999995
 10
412.100448
 20
2391.910231
 42
0.05013600000000006
 10
412.431842
 20
2390.050163
 42
0.06825400000000066
 10
413.0432489999998
 20
2388.654131
 42
0.07165700000000234
 10
413.9999999999999
 20
2387.5
 42
-0.07165700000000046
 10
414.9567510000001
 20
2386.345869
 42
-0.06825400000000077
 10
415.568158
 20
2384.949837
 42
-0.05013600000000006
 10
415.899552
 20
2383.089769
 42
-0.01903399999999995
 10
415.9999999999999
 20
2380.452001
 42
0.01615700000000011
 10
416.0798119999999
 20
2377.982765
 42
0.047006
 10
416.3490640000001
 20
2376.298967
 42
0.07485499999999862
 10
416.812212
 20
2375.209411
 42
0.1647210000000101
 10
417.4999999999998
 20
2374.638374
 42
-0.166879999999961
 10
418.1918439999999
 20
2374.059039
 42
-0.07448200000000167
 10
418.6540660000001
 20
2372.948093
 42
-0.04611400000000036
 10
418.9213930000001
 20
2371.219368
 42
-0.015316
 10
419
 20
2368.65383
 42
0.01858399999999987
 10
419.0909139999999
 20
2366.208712
 42
0.03686600000000011
 10
419.3768679999999
 20
2364.291088
 42
0.04783900000000058
 10
419.8426889999998
 20
2362.872767
 42
0.1168110000000052
 10
420.5000000000001
 20
2362
 42
-0.112328000000011
 10
421.1350700000002
 20
2361.172113
 42
-0.04644800000000043
 10
421.605687
 20
2359.832361
 42
-0.03806599999999984
 10
421.90304
 20
2358.088428
 42
-0.02320099999999996
 10
422
 20
2356
 42
0.02320100000000007
 10
422.0969600000001
 20
2353.911572
 42
0.03806599999999973
 10
422.3943130000001
 20
2352.167639
 42
0.04644799999999988
 10
422.86493
 20
2350.827887
 42
0.1123280000000036
 10
423.4999999999999
 20
2350
 42
-0.1168110000000008
 10
424.1573109999999
 20
2349.127233
 42
-0.04783899999999969
 10
424.6231319999999
 20
2347.708912
 42
-0.03686600000000011
 10
424.909086
 20
2345.791288
 42
-0.01858399999999998
 10
425
 20
2343.34617
 42
0.01531600000000012
 10
425.0786069999999
 20
2340.780632
 42
0.04611400000000013
 10
425.3459339999999
 20
2339.051907
 42
0.07448200000000134
 10
425.8081560000001
 20
2337.940961
 42
0.1668799999999608
 10
426.5000000000002
 20
2337.361626
 42
-0.1651340000000072
 10
427.1885780000002
 20
2336.788997
 42
-0.07478900000000323
 10
427.6515470000001
 20
2335.695374
 42
-0.04683499999999983
 10
427.920423
 20
2334.003015
 42
-0.01599099999999993
 10
428
 20
2331.515456
 42
0.01942800000000004
 10
428.092096
 20
2329.146174
 42
0.03716099999999994
 10
428.3801989999999
 20
2327.265262
 42
0.04763700000000043
 10
428.846959
 20
2325.863725
 42
0.115861000000001
 10
429.5
 20
2325
 42
-0.09777800000000064
 10
430.0759629999999
 20
2324.292309
 42
-0.04163699999999939
 10
430.5593749999999
 20
2323.164608
 42
-0.03911499999999966
 10
430.889157
 20
2321.837486
 42
-0.0413660000000002
 10
431
 20
2320.5
 42
0.04136600000000031
 10
431.1108429999999
 20
2319.162514
 42
0.03911499999999977
 10
431.4406250000001
 20
2317.835392
 42
0.04163699999999916
 10
431.9240370000001
 20
2316.707691
 42
0.09777800000000524
 10
432.5000000000001
 20
2316
 42
-0.1268480000000142
 10
433.193427
 20
2315.040353
 42
-0.04789799999999933
 10
433.6506759999999
 20
2313.436052
 42
-0.03317699999999994
 10
433.919263
 20
2311.122966
 42
-0.01231799999999981
 10
434
 20
2307.84617
 42
0.01032100000000001
 10
434.0705379999999
 20
2304.429352
 42
0.03914700000000021
 10
434.325106
 20
2302.3099
 42
0.06923699999999895
 10
434.779859
 20
2301.007979
 42
0.1845770000000189
 10
435.4999999999999
 20
2300.361626
 42
-0.1647209999999842
 10
436.1877879999998
 20
2299.790589
 42
-0.07485499999999706
 10
436.6509359999999
 20
2298.701033
 42
-0.04700600000000011
 10
436.9201880000001
 20
2297.017235
 42
-0.016157
 10
437.0000000000001
 20
2294.547999
 42
0.01903399999999995
 10
437.100448
 20
2291.910231
 42
0.05013600000000006
 10
437.431842
 20
2290.050163
 42
0.06825400000000066
 10
438.0432489999998
 20
2288.654131
 42
0.07165700000000234
 10
439
 20
2287.5
 42
-0.06628800000000165
 10
439.8674290000002
 20
2286.476089
 42
-0.05617800000000108
 10
440.4951880000002
 20
2285.203374
 42
-0.0503630000000005
 10
440.873992
 20
2283.690531
 42
-0.03619199999999994
 10
441
 20
2281.952001
 42
0.02893700000000005
 10
441.0946520000001
 20
2280.317879
 42
0.05478999999999865
 10
441.3888170000002
 20
2279.033712
 42
0.07349599999999777
 10
441.8619090000003
 20
2278.128047
 42
0.1450749999999853
 10
442.5000000000001
 20
2277.638374
 42
-0.1688000000000046
 10
443.195312
 20
2277.051703
 42
-0.07409099999999953
 10
443.6567190000001
 20
2275.921437
 42
-0.04532700000000035
 10
443.922417
 20
2274.152359
 42
-0.01462199999999994
 10
444
 20
2271.5
 42
0.01462200000000006
 10
444.0775830000001
 20
2268.847641
 42
0.04532700000000012
 10
444.3432809999999
 20
2267.078563
 42
0.07409100000000143
 10
444.804688
 20
2265.948297
 42
0.1687999999999831
 10
445.5000000000001
 20
2265.361626
 42
-0.1455020000000202
 10
446.1395630000002
 20
2264.869972
 42
-0.07365900000000063
 10
446.6123809999999
 20
2263.960404
 42
-0.05464999999999914
 10
446.9057769999999
 20
2262.667448
 42
-0.02849500000000044
 10
447.0000000000001
 20
2261.015456
 42
0.03473399999999981
 10
447.1085
 20
2259.455466
 42
0.03795000000000007
 10
447.4319939999999
 20
2257.972275
 42
0.04143500000000017
 10
447.9125180000001
 20
2256.745871
 42
0.1058479999999934
 10
448.5000000000002
 20
2256
 42
-0.09777800000000501
 10
449.0759629999999
 20
2255.292309
 42
-0.0416369999999995
 10
449.5593749999999
 20
2254.164608
 42
-0.03911499999999966
 10
449.889157
 20
2252.837486
 42
-0.0413660000000002
 10
450
 20
2251.5
 42
0.04136600000000031
 10
450.1108429999999
 20
2250.162514
 42
0.03911499999999977
 10
450.4406250000001
 20
2248.835392
 42
0.04163699999999916
 10
450.9240370000001
 20
2247.707691
 42
0.09777800000000524
 10
451.5
 20
2247
 42
-0.07430300000000487
 10
452.0745470000002
 20
2246.357652
 42
-0.04455600000000091
 10
452.5593750000001
 20
2245.453818
 42
-0.04355000000000016
 10
452.889413
 20
2244.445261
 42
-0.0573649999999999
 10
452.9999999999999
 20
2243.484544
 42
0.06112000000000056
 10
453.1117899999999
 20
2242.573445
 42
0.06028700000000026
 10
453.4406249999999
 20
2241.711873
 42
0.06576300000000344
 10
453.9261129999999
 20
2241.026583
 42
0.1146689999999933
 10
454.4999999999999
 20
2240.638374
 42
-0.1078949999999784
 10
455.0737149999998
 20
2240.261373
 42
-0.06644699999999938
 10
455.5593750000001
 20
2239.61149
 42
-0.06191300000000128
 10
455.8880700000001
 20
2238.801289
 42
-0.06552799999999963
 10
456
 20
2237.950896
 42
0.1909969999999985
 10
457.134934
 20
2235.088201
 42
0.008884000000000031
 10
464.5586589999999
 20
2227.472945999999
 42
0.008951999999999924
 10
472.2447879999999
 20
2220.131558999999
 42
0.1883189999999923
 10
475.142603
 20
2219
 42
-0.07173800000000559
 10
475.9196820000001
 20
2218.887931
 42
-0.06376200000000201
 10
476.667804
 20
2218.559375
 42
-0.06685099999999934
 10
477.2751660000001
 20
2218.073555
 42
-0.09937900000000295
 10
477.6383740000001
 20
2217.5
 42
0.1133010000000013
 10
478.0243
 20
2216.926151
 42
0.06592499999999801
 10
478.702313
 20
2216.440625
 42
0.06062400000000204
 10
479.553352
 20
2216.11182
 42
0.06197700000000073
 10
480.452001
 20
2216
 42
-0.07297799999999514
 10
481.4408629999999
 20
2215.854897
 42
-0.04189899999999839
 10
482.564286
 20
2215.4125
 42
-0.04084200000000194
 10
483.6424330000003
 20
2214.765447000001
 42
-0.05331600000000137
 10
484.5000000000002
 20
2214
 42
0.06955199999999709
 10
485.6153250000002
 20
2213.067509
 42
0.06518499999999904
 10
486.967769
 20
2212.45169
 42
0.05112399999999925
 10
488.709148
 20
2212.10786
 42
0.02319900000000003
 10
491.032543
 20
2212
 42
-0.02347900000000014
 10
493.103332
 20
2211.902707
 42
-0.03810900000000027
 10
494.8386100000001
 20
2211.604693
 42
-0.04634600000000089
 10
496.174505
 20
2211.13381
 42
-0.1121059999999954
 10
496.9999999999997
 20
2210.5
 42
0.150826000000025
 10
498.1484699999999
 20
2209.74973
 42
0.03998399999999935
 10
500.320141
 20
2209.31097
 42
0.02412800000000001
 10
503.757931
 20
2209.065848
 42
0.005733999999999923
 10
509.5
 20
2209
 42
-0.005734000000000034
 10
515.242069
 20
2208.934151999999
 42
-0.02412799999999979
 10
518.679859
 20
2208.68903
 42
-0.03998400000000069
 10
520.8515300000001
 20
2208.25027
 42
-0.1508259999999984
 10
522
 20
2207.5
 42
0.2212030000000014
 10
524.0523709999843
 20
2206.527065000002
 42
0.0003470000000001002
 10
565.7018259999965
 20
2206.252710000004
 42
0.001324999999999835
 10
630.148695000056
 20
2206.043592999951
 42
0.0001489999999999309
 10
776.5
 20
2205.999999999971
 42
0.0001489999999999309
 10
922.8513049999385
 20
2206.04359299998
 42
0.001324999999999835
 10
987.2981739999981
 20
2206.252710000001
 42
0.0003469999999998781
 10
1028.947628999989
 20
2206.527064999998
 42
0.2212030000000135
 10
1031
 20
2207.5
 42
-0.1984560000000029
 10
1032.617862
 20
2208.355173
 42
-0.01279399999999998
 10
1038.045999
 20
2208.72946
 42
-0.009462000000000033
 10
1047.099131
 20
2208.949805
 42
-0.001352999999999993
 10
1065.653830000001
 20
2209
 42
0.001280999999999794
 10
1084.417584999998
 20
2209.048057
 42
0.009747000000000131
 10
1093.250573
 20
2209.265532
 42
0.01247900000000012
 10
1098.489323
 20
2209.627926000001
 42
0.2849489999999163
 10
1099.638374
 20
2210.5
 42
-0.305981000000031
 10
1101.005624
 20
2211.456651999999
 42
-0.001160000000000047
 10
1121.188681
 20
2211.745827
 42
-0.002694000000000045
 10
1152.938478000003
 20
2211.955947000002
 42
-0.0003069999999999195
 10
1224.571804999986
 20
2212.000000000015
 42
0.0002109999999999985
 10
1306.742682999987
 20
2212.034621000013
 42
0.003775000000000129
 10
1333.138207
 20
2212.256172
 42
0.004644999999999976
 10
1347.793688
 20
2212.626072999999
 42
0.2673270000000388
 10
1350
 20
2214
 42
-0.2315539999999971
 10
1351.70544
 20
2215.228665
 42
-0.03010800000000017
 10
1356.292289
 20
2215.730742000001
 42
-0.01145700000000002
 10
1365.190114000001
 20
2215.961374999999
 42
-0.0007499999999999138
 10
1390.928194999998
 20
2216
 42
0.001048000000000123
 10
1413.439026000001
 20
2216.047161
 42
0.008222999999999956
 10
1423.898047
 20
2216.263019
 42
0.009320999999999956
 10
1430.168445
 20
2216.612781
 42
0.2902700000000099
 10
1431.361626
 20
2217.5
 42
-0.2937539999999757
 10
1432.586458
 20
2218.398598000001
 42
-0.00731599999999996
 10
1439.834383
 20
2218.738697
 42
-0.007169999999999988
 10
1451.818733000001
 20
2218.953448
 42
-0.0008940000000000156
 10
1477.846169999996
 20
2219.000000000002
 42
0.0009320000000001742
 10
1503.659367000002
 20
2219.048095000001
 42
0.007018999999999912
 10
1515.866026
 20
2219.264947000001
 42
0.007877999999999941
 10
1523.264799
 20
2219.617067000001
 42
0.2065549999999828
 10
1525
 20
2220.5
 42
-0.2008080000000006
 10
1526.649817
 20
2221.362538
 42
-0.01135099999999997
 10
1532.521699
 20
2221.731072
 42
-0.008767999999999981
 10
1542.293165
 20
2221.950413
 42
-0.001226999999999896
 10
1562.499999999998
 20
2222
 42
0.001227000000000118
 10
1582.706835
 20
2222.049586999999
 42
0.008768000000000092
 10
1592.478301
 20
2222.268928
 42
0.01135099999999997
 10
1598.350183
 20
2222.637462000001
 42
0.2008079999999761
 10
1600
 20
2223.5
 42
-0.2029120000000077
 10
1601.679762
 20
2224.369563
 42
-0.01006900000000007
 10
1608.0229
 20
2224.732519
 42
-0.008138000000000025
 10
1618.551303
 20
2224.950957
 42
-0.001116999999999942
 10
1640.499999999998
 20
2225
 42
0.001117000000000164
 10
1662.448697000001
 20
2225.049043
 42
0.008138000000000136
 10
1672.9771
 20
2225.267481
 42
0.01006899999999985
 10
1679.320238
 20
2225.630437
 42
0.2029119999999922
 10
1681
 20
2226.5
 42
-0.1984560000000029
 10
1682.617862
 20
2227.355173
 42
-0.01279399999999998
 10
1688.045999
 20
2227.72946
 42
-0.009462000000000033
 10
1697.099131
 20
2227.949805
 42
-0.001352999999999993
 10
1715.653830000001
 20
2228
 42
0.001280999999999794
 10
1734.417584999998
 20
2228.048057
 42
0.009747000000000131
 10
1743.250573
 20
2228.265532
 42
0.01247900000000012
 10
1748.489323
 20
2228.627926000001
 42
0.2849489999999163
 10
1749.638374
 20
2229.5
 42
-0.2723659999999969
 10
1750.697191
 20
2230.343269999999
 42
-0.0202019999999998
 10
1754.526558
 20
2230.728755
 42
-0.013133
 10
1761.092753
 20
2230.949883
 42
-0.001849999999999939
 10
1774.638373999999
 20
2231
 42
0.001849999999999939
 10
1788.183994999999
 20
2231.050117
 42
0.01313299999999989
 10
1794.750189
 20
2231.271245
 42
0.02020199999999991
 10
1798.579556
 20
2231.656730000001
 42
0.272365999999946
 10
1799.638374
 20
2232.5
 42
-0.2832129999999788
 10
1800.773928
 20
2233.367593
 42
-0.01352699999999994
 10
1805.752805
 20
2233.733667
 42
-0.01022800000000003
 10
1814.172587
 20
2233.951654999999
 42
-0.001356999999999964
 10
1831.984544000001
 20
2234
 42
0.001436999999999827
 10
1849.588427999998
 20
2234.050595000001
 42
0.009913999999999864
 10
1858.227942
 20
2234.271599
 42
0.01374399999999998
 10
1863.40233
 20
2234.649417
 42
0.1969119999999863
 10
1865
 20
2235.5
 42
-0.1931830000000078
 10
1866.55113
 20
2236.340167
 42
-0.01604299999999996
 10
1871.206051
 20
2236.725826
 42
-0.01099599999999994
 10
1878.991111
 20
2236.948429
 42
-0.001648999999999987
 10
1894.632231999997
 20
2237
 42
0.001210000000000115
 10
1912.526715999999
 20
2237.043312
 42
0.01537799999999995
 10
1919.249151
 20
2237.282695
 42
0.04253799999999966
 10
1922.816696
 20
2237.826889
 42
0.1578670000000057
 10
1924.732028
 20
2239
 42
-0.1775029999999924
 10
1926.901511
 20
2240.217375
 42
-0.02835799999999986
 10
1931.821526
 20
2240.727457
 42
-0.01089600000000002
 10
1941.195179
 20
2240.960091000001
 42
-0.0007549999999999459
 10
1967.615252
 20
2241.000000000002
 42
0.001009999999999908
 10
1990.889056999998
 20
2241.047012999999
 42
0.007969000000000039
 10
2001.679064
 20
2241.262604
 42
0.008822999999999786
 10
2008.160897
 20
2241.610109
 42
0.2911260000000255
 10
2009.361626
 20
2242.5
 42
-0.2499180000000659
 10
2010.289664
 20
2243.305103000001
 42
-0.03418699999999984
 10
2012.909919
 20
2243.718377
 42
-0.01899299999999987
 10
2017.450404
 20
2243.946072
 42
-0.003031000000000034
 10
2026.34617
 20
2244
 42
0.003351999999999972
 10
2035.052599
 20
2244.058360999999
 42
0.01784099999999988
 10
2039.804995
 20
2244.29182
 42
0.02996700000000015
 10
2042.689531
 20
2244.712089000001
 42
0.1699789999999864
 10
2044
 20
2245.5
 42
-0.1442740000000169
 10
2045.096737
 20
2246.236713
 42
-0.04283800000000029
 10
2047.088905
 20
2246.680746999999
 42
-0.02647999999999969
 10
2050.180738
 20
2246.930905
 42
-0.006946999999999933
 10
2055.15383
 20
2247
 42
0.00600999999999992
 10
2060.29164
 20
2247.061759
 42
0.02952499999999977
 10
2063.181375
 20
2247.302367
 42
0.05592700000000068
 10
2064.881081
 20
2247.743335
 42
0.2128309999999623
 10
2065.638374
 20
2248.5
 42
-0.1985400000000253
 10
2066.338347
 20
2249.238843
 42
-0.06319799999999583
 10
2067.818329
 20
2249.687258999999
 42
-0.03417099999999988
 10
2070.288664
 20
2249.934252
 42
-0.007834000000000035
 10
2074.484544
 20
2250
 42
0.009206999999999957
 10
2078.52734
 20
2250.074449
 42
0.02989000000000025
 10
2081.195543
 20
2250.332972
 42
0.04603000000000058
 10
2082.973626
 20
2250.78386
 42
0.1352490000000104
 10
2084
 20
2251.5
 42
-0.07430300000000978
 10
2084.642348
 20
2252.074547000001
 42
-0.04455600000000025
 10
2085.546182
 20
2252.559375
 42
-0.04354999999999928
 10
2086.554739
 20
2252.889413
 42
-0.05736499999999912
 10
2087.515456
 20
2253
 42
0.06112000000000067
 10
2088.426555
 20
2253.11179
 42
0.06028699999999692
 10
2089.288127
 20
2253.440625000001
 42
0.0657629999999952
 10
2089.973417
 20
2253.926113
 42
0.1146690000000182
 10
2090.361626
 20
2254.5
 42
-0.1493619999999528
 10
2090.870536
 20
2255.151757999999
 42
-0.07477699999998776
 10
2091.815348
 20
2255.622279
 42
-0.05327200000000029
 10
2093.186968
 20
2255.909374
 42
-0.02497699999999975
 10
2095
 20
2256
 42
0.02497699999999975
 10
2096.813032
 20
2256.090626000001
 42
0.05327199999999807
 10
2098.184652
 20
2256.377721000001
 42
0.07477699999998921
 10
2099.129464
 20
2256.848242
 42
0.149362000000019
 10
2099.638374
 20
2257.5
 42
-0.1209970000000173
 10
2100.03725
 20
2258.074084
 42
-0.06486400000000309
 10
2100.75706
 20
2258.559375
 42
-0.05867999999999825
 10
2101.668415
 20
2258.888355
 42
-0.05736199999999768
 10
2102.638374
 20
2259
 42
0.05736200000000169
 10
2103.608332
 20
2259.111645
 42
0.05867999999999848
 10
2104.519687
 20
2259.440625
 42
0.06486400000000297
 10
2105.239497
 20
2259.925916
 42
0.1209970000000137
 10
2105.638374
 20
2260.5
 42
-0.113300999999998
 10
2106.0243
 20
2261.073849
 42
-0.06592499999999746
 10
2106.702313
 20
2261.559375
 42
-0.06062399999999982
 10
2107.553352
 20
2261.88818
 42
-0.06197699999999694
 10
2108.452001
 20
2262
 42
0.07297800000000251
 10
2109.440863
 20
2262.145103
 42
0.04189899999999883
 10
2110.564286
 20
2262.5875
 42
0.04084200000000061
 10
2111.642433
 20
2263.234553
 42
0.05331599999999625
 10
2112.5
 20
2264
 42
-0.04066399999999849
 10
2113.315011
 20
2264.765297
 42
-0.03740299999999967
 10
2114.265309
 20
2265.4125
 42
-0.03953899999999987
 10
2115.203611
 20
2265.858928
 42
-0.09151699999999734
 10
2115.967896
 20
2266
 42
0.1162520000000296
 10
2116.795003
 20
2266.194941
 42
0.03045799999999962
 10
2117.983094
 20
2266.881249999999
 42
0.02924800000000064
 10
2119.277896
 20
2267.851752999999
 42
0.02628800000000012
 10
2120.5
 20
2269
 42
-0.02457600000000063
 10
2121.713831999999
 20
2270.148321000001
 42
-0.02806299999999972
 10
2122.98398
 20
2271.11875
 42
-0.02893500000000056
 10
2124.138846
 20
2271.808586
 42
-0.1207309999999977
 10
2124.920017
 20
2272
 42
0.194804999999986
 10
2127.257247
 20
2272.946527
 42
0.003755999999999964
 10
2136.725214
 20
2282.258526
 42
0.003750999999999865
 10
2146.053221
 20
2291.712569999999
 42
0.1952210000000198
 10
2147
 20
2294.045042
 42
-0.1193059999999952
 10
2147.192568
 20
2294.840584
 42
-0.02942699999999956
 10
2147.88125
 20
2296.005756
 42
-0.02844200000000021
 10
2148.851703
 20
2297.28359
 42
-0.02511099999999971
 10
2150
 20
2298.5
 42
0.02678299999999971
 10
2151.148227
 20
2299.724508
 42
0.02957599999999936
 10
2152.11875
 20
2301.026465
 42
0.03087099999999952
 10
2152.804125000001
 20
2302.224289
 42
0.1150010000000227
 10
2153
 20
2303.064646
 42
-0.0736949999999968
 10
2153.109407999999
 20
2303.802919
 42
-0.0445720000000024
 10
2153.440625
 20
2304.624223
 42
-0.04362900000000215
 10
2153.925946
 20
2305.398974
 42
-0.0578760000000028
 10
2154.5
 20
2306
 42
0.07430300000000956
 10
2155.074547000001
 20
2306.642348
 42
0.04455600000000047
 10
2155.559375
 20
2307.546182
 42
0.04354999999999928
 10
2155.889413
 20
2308.554739
 42
0.05736499999999912
 10
2156
 20
2309.515456
 42
-0.06112000000000067
 10
2156.11179
 20
2310.426555
 42
-0.06028699999999692
 10
2156.440625000001
 20
2311.288127
 42
-0.06576299999999509
 10
2156.926113
 20
2311.973417
 42
-0.1146690000000182
 10
2157.5
 20
2312.361626
 42
0.126488000000024
 10
2158.074285000001
 20
2312.769923
 42
0.06390000000000444
 10
2158.559374999999
 20
2313.52096
 42
0.05723399999999503
 10
2158.888488
 20
2314.477085
 42
0.05434600000000252
 10
2159
 20
2315.5
 42
-0.05434600000000486
 10
2159.111511999999
 20
2316.522915
 42
-0.0572339999999986
 10
2159.440625
 20
2317.47904
 42
-0.06390000000000054
 10
2159.925714999999
 20
2318.230077
 42
-0.126488000000024
 10
2160.5
 20
2318.638374
 42
0.1209970000000173
 10
2161.074084
 20
2319.03725
 42
0.06486400000000297
 10
2161.559375
 20
2319.75706
 42
0.05867999999999848
 10
2161.888355
 20
2320.668415
 42
0.05736199999999768
 10
2162
 20
2321.638374
 42
-0.05736200000000158
 10
2162.111645
 20
2322.608332
 42
-0.05867999999999837
 10
2162.440625
 20
2323.519687
 42
-0.06486400000000309
 10
2162.925916
 20
2324.239497
 42
-0.120997000000014
 10
2163.5
 20
2324.638374
 42
0.1450750000000127
 10
2164.138091
 20
2325.128047
 42
0.07349599999999822
 10
2164.611183
 20
2326.033712
 42
0.05478999999999843
 10
2164.905348
 20
2327.317879
 42
0.0289370000000005
 10
2165.000000000001
 20
2328.952001
 42
-0.03619199999999883
 10
2165.126008000001
 20
2330.690531
 42
-0.0503630000000005
 10
2165.504812
 20
2332.203374
 42
-0.05617799999999941
 10
2166.132571
 20
2333.476089
 42
-0.06628800000000099
 10
2167
 20
2334.5
 42
0.06527000000000532
 10
2167.817455
 20
2335.460963
 42
0.04910199999999959
 10
2168.454429999999
 20
2336.695309
 42
0.04700699999999806
 10
2168.862381999999
 20
2338.091224
 42
0.0476320000000003
 10
2169
 20
2339.532543
 42
-0.04175499999999883
 10
2169.110847
 20
2340.857577
 42
-0.03927300000000068
 10
2169.440625
 20
2342.174168
 42
-0.04177799999999954
 10
2169.924092
 20
2343.294359
 42
-0.09708399999999255
 10
2170.5
 20
2344
 42
0.1158609999999857
 10
2171.153041
 20
2344.863725
 42
0.04763699999999887
 10
2171.619801
 20
2346.265262
 42
0.03716100000000039
 10
2171.907904
 20
2348.146174
 42
0.01942799999999982
 10
2172
 20
2350.515456
 42
-0.01599099999999982
 10
2172.079577
 20
2353.003015
 42
-0.04683499999999872
 10
2172.348453000001
 20
2354.695374
 42
-0.07478899999999809
 10
2172.811422000001
 20
2355.788997
 42
-0.1651339999999603
 10
2173.5
 20
2356.361625999999
 42
0.1681900000000283
 10
2174.559002
 20
2357.253011
 42
0.1396249999999819
 10
2174.940234999999
 20
2358.683734
 42
0.107163999999992
 10
2174.533064
 20
2360.418359
 42
0.07300299999999998
 10
2173.402039
 20
2362.108246
 42
-0.08817999999999557
 10
2172.45407
 20
2363.621429
 42
-0.2262059999999817
 10
2172.531074
 20
2364.878689
 42
-0.1988689999999632
 10
2173.59279
 20
2365.723446999999
 42
-0.06998100000000031
 10
2175.559017
 20
2366
 42
0.08705600000000407
 10
2176.956515
 20
2366.245178
 42
0.2242490000000969
 10
2177.661270000001
 20
2366.954384
 42
0.07956899999999861
 10
2177.948857
 20
2368.514876
 42
0.005860999999999893
 10
2178
 20
2372.877555
 42
-0.01240999999999995
 10
2178.08091
 20
2376.136799
 42
-0.03325599999999996
 10
2178.349777
 20
2378.441659
 42
-0.04792599999999952
 10
2178.807184
 20
2380.042005
 42
-0.1266449999999944
 10
2179.5
 20
2381
 42
0.1168110000000072
 10
2180.157311
 20
2381.872767
 42
0.04783899999999858
 10
2180.623132
 20
2383.291088
 42
0.036866000000001
 10
2180.909086000001
 20
2385.208712
 42
0.01858400000000009
 10
2181
 20
2387.65383
 42
-0.01531600000000023
 10
2181.078606999999
 20
2390.219368
 42
-0.04611400000000069
 10
2181.345934
 20
2391.948093
 42
-0.07448199999999787
 10
2181.808156
 20
2393.059039
 42
-0.1668799999999831
 10
2182.5
 20
2393.638374000001
 42
0.1651339999999602
 10
2183.188577999999
 20
2394.211003
 42
0.07478900000000033
 10
2183.651546999999
 20
2395.304626
 42
0.04683499999999872
 10
2183.920423
 20
2396.996985
 42
0.01599099999999993
 10
2184
 20
2399.484544
 42
-0.01942799999999971
 10
2184.092096
 20
2401.853826
 42
-0.0371609999999995
 10
2184.380199
 20
2403.734738
 42
-0.0476370000000001
 10
2184.846959
 20
2405.136275
 42
-0.1158609999999856
 10
2185.5
 20
2406
 42
0.1360569999999922
 10
2186.21811
 20
2407.032688
 42
0.04578700000000221
 10
2186.668394
 20
2408.828652
 42
0.02957799999999994
 10
2186.926082
 20
2411.532771
 42
0.00896799999999996
 10
2187
 20
2415.65383
 42
-0.007642000000000104
 10
2187.06535
 20
2419.929104
 42
-0.03372799999999981
 10
2187.311708
 20
2422.434959
 42
-0.06257200000000454
 10
2187.759489999999
 20
2423.933274
 42
-0.1998490000000344
 10
2188.5
 20
2424.638374
 42
0.1647209999999909
 10
2189.187788
 20
2425.209411
 42
0.07485499999999616
 10
2189.650936
 20
2426.298967
 42
0.04700599999999933
 10
2189.920188
 20
2427.982765
 42
0.01615700000000011
 10
2190
 20
2430.452001
 42
-0.01903399999999973
 10
2190.100448
 20
2433.089769
 42
-0.05013599999999872
 10
2190.431842
 20
2434.949837
 42
-0.06825400000000088
 10
2191.043249
 20
2436.345869
 42
-0.07165700000000011
 10
2192
 20
2437.5
 42
0.07846699999999511
 10
2193.00608
 20
2438.747648
 42
0.07317299999999685
 10
2193.608638999999
 20
2440.274298
 42
0.04564799999999865
 10
2193.915296
 20
2442.472555
 42
0.01184400000000016
 10
2194
 20
2446.047999
 42
-0.01073499999999998
 10
2194.071277
 20
2449.367375
 42
-0.03985899999999888
 10
2194.327011
 20
2451.44257
 42
-0.0699490000000025
 10
2194.782578
 20
2452.722448
 42
-0.1826819999999857
 10
2195.5
 20
2453.361626
 42
0.2272050000000106
 10
2196.274482
 20
2454.180469
 42
0.04786399999999903
 10
2196.706484
 20
2456.157931
 42
0.02522900000000009
 10
2196.941612
 20
2459.561087999999
 42
0.004633000000000179
 10
2197
 20
2465.861626
 42
-0.004632999999999957
 10
2197.058387999999
 20
2472.162165
 42
-0.02522900000000031
 10
2197.293516
 20
2475.565322
 42
-0.04786399999999971
 10
2197.725518
 20
2477.542784
 42
-0.2272050000000023
 10
2198.5
 20
2478.361626
 42
0.1845769999999886
 10
2199.220141
 20
2479.007979
 42
0.06923699999999919
 10
2199.674894
 20
2480.3099
 42
0.03914699999999932
 10
2199.929462
 20
2482.429352
 42
0.01032100000000001
 10
2200
 20
2485.84617
 42
-0.01231799999999992
 10
2200.080737
 20
2489.122966
 42
-0.03317699999999971
 10
2200.349324
 20
2491.436052
 42
-0.04789800000000022
 10
2200.806573
 20
2493.040353
 42
-0.1268480000000046
 10
2201.5
 20
2494
 42
0.1352490000000106
 10
2202.21614
 20
2495.026374
 42
0.04603000000000058
 10
2202.667028
 20
2496.804457
 42
0.02989000000000003
 10
2202.925551
 20
2499.47266
 42
0.009207000000000179
 10
2203
 20
2503.515456
 42
-0.007834000000000035
 10
2203.065748
 20
2507.711336
 42
-0.03417099999999944
 10
2203.312741000001
 20
2510.181671
 42
-0.06319799999999672
 10
2203.761157000001
 20
2511.661653
 42
-0.1985399999999573
 10
2204.5
 20
2512.361626
 42
0.1998490000000009
 10
2205.240510000001
 20
2513.066726
 42
0.06257200000000454
 10
2205.688292
 20
2514.565041
 42
0.03372799999999959
 10
2205.934649999999
 20
2517.070896
 42
0.007641999999999771
 10
2206
 20
2521.34617
 42
-0.008967999999999849
 10
2206.073918000001
 20
2525.467229
 42
-0.02957799999999994
 10
2206.331606
 20
2528.171348
 42
-0.04578700000000233
 10
2206.78189
 20
2529.967312
 42
-0.1360569999999935
 10
2207.5
 20
2531
 42
0.1434770000000116
 10
2208.235001
 20
2532.090505
 42
0.04315799999999905
 10
2208.679655
 20
2534.06236
 42
0.02677400000000032
 10
2208.930477
 20
2537.114553
 42
0.007115000000000275
 10
2209
 20
2542
 42
-0.007114999999999942
 10
2209.069523
 20
2546.885447
 42
-0.0267740000000001
 10
2209.320345000001
 20
2549.93764
 42
-0.04315799999999905
 10
2209.764999
 20
2551.909495
 42
-0.1434769999999891
 10
2210.5
 20
2553
 42
0.1442740000000243
 10
2211.236713
 20
2554.096737
 42
0.04283800000000006
 10
2211.680746999999
 20
2556.088905
 42
0.0264799999999998
 10
2211.930904999999
 20
2559.180738
 42
0.006946999999999933
 10
2212
 20
2564.15383
 42
-0.006010000000000031
 10
2212.061759000001
 20
2569.29164
 42
-0.0295250000000001
 10
2212.302367
 20
2572.181375
 42
-0.05592700000000079
 10
2212.743335
 20
2573.881081
 42
-0.2128309999999622
 10
2213.5
 20
2574.638374
 42
0.1982289999999716
 10
2214.238446
 20
2575.337134
 42
0.06334499999999903
 10
2214.687011
 20
2576.812811
 42
0.03427699999999934
 10
2214.934155999999
 20
2579.274789
 42
0.00788100000000001
 10
2215
 20
2583.452001
 42
-0.008214000000000004
 10
2215.074513999999
 20
2587.987315
 42
-0.0409280000000007
 10
2215.365622
 20
2590.514908
 42
-0.07443699999999473
 10
2215.962514000001
 20
2592.175438
 42
-0.08559699999999273
 10
2217
 20
2593.5
 42
0.09928599999999854
 10
2218.076178
 20
2594.953569
 42
0.07190099999999794
 10
2218.665127
 20
2596.885987
 42
0.03325899999999947
 10
2218.937519999999
 20
2600.05367
 42
0.004821999999999855
 10
2219
 20
2606.532543
 42
-0.005757999999999931
 10
2219.065918000001
 20
2612.255985
 42
-0.02418099999999966
 10
2219.311147
 20
2615.68543
 42
-0.04005300000000082
 10
2219.750031
 20
2617.852725
 42
-0.1506770000000115
 10
2220.5
 20
2619
 42
0.1572919999999984
 10
2221.263068000001
 20
2620.200922
 42
0.03683700000000085
 10
2221.6962
 20
2622.576091
 42
0.02191399999999981
 10
2221.936962
 20
2626.39779
 42
0.004774000000000209
 10
2222
 20
2633
 42
-0.004773999999999876
 10
2222.063038
 20
2639.60221
 42
-0.02191400000000003
 10
2222.3038
 20
2643.423909
 42
-0.03683700000000085
 10
2222.736932
 20
2645.799078
 42
-0.1572919999999779
 10
2223.5
 20
2647
 42
0.1572919999999984
 10
2224.263068000001
 20
2648.200922
 42
0.03683700000000085
 10
2224.6962
 20
2650.576091
 42
0.02191399999999981
 10
2224.936962
 20
2654.39779
 42
0.004774000000000209
 10
2225
 20
2661
 42
-0.004773999999999876
 10
2225.063038
 20
2667.60221
 42
-0.02191400000000003
 10
2225.3038
 20
2671.423909
 42
-0.03683700000000085
 10
2225.736932
 20
2673.799078
 42
-0.1572919999999779
 10
2226.5
 20
2675
 42
0.1629779999999938
 10
2227.274146000001
 20
2676.24873
 42
0.0338550000000005
 10
2227.701861
 20
2678.83079
 42
0.02004699999999964
 10
2227.939176
 20
2683.035183
 42
0.00407399999999976
 10
2228
 20
2690.5
 42
-0.004073999999999982
 10
2228.060824000001
 20
2697.964817
 42
-0.02004699999999986
 10
2228.298139
 20
2702.16921
 42
-0.03385499999999995
 10
2228.725854
 20
2704.75127
 42
-0.1629779999999938
 10
2229.5
 20
2706
 42
0.1647699999999759
 10
2230.277642999999
 20
2707.264204
 42
0.03288000000000006
 10
2230.703541
 20
2709.918093
 42
0.01947299999999996
 10
2230.939832
 20
2714.253775
 42
0.003875999999999901
 10
2231
 20
2722.015456
 42
-0.003474999999999904
 10
2231.055233999999
 20
2729.962219
 42
-0.02088699999999992
 10
2231.285131000001
 20
2734.087742
 42
-0.03854499999999937
 10
2231.705010000001
 20
2736.46964
 42
-0.2428229999999953
 10
2232.5
 20
2737.361626
 42
0.2750959999999826
 10
2233.34889
 20
2738.438684
 42
0.01850799999999999
 10
2233.729984000001
 20
2742.500282
 42
0.01241399999999998
 10
2233.950328000001
 20
2749.445102999999
 42
0.001723000000000126
 10
2234
 20
2763.861626000001
 42
-0.001722999999999904
 10
2234.049672000001
 20
2778.27815
 42
-0.01241399999999998
 10
2234.270016
 20
2785.222971
 42
-0.01850799999999999
 10
2234.65111
 20
2789.284569
 42
-0.2750960000000252
 10
2235.5
 20
2790.361626
 42
0.2657789999999731
 10
2236.330774
 20
2791.378857
 42
0.02431000000000009
 10
2236.725780000001
 20
2794.748669
 42
0.01485100000000015
 10
2236.948799
 20
2800.557277999999
 42
0.002168999999999807
 10
2237
 20
2812.361625999999
 42
0.002169000000000251
 10
2236.948799
 20
2824.165974
 42
0.01485100000000004
 10
2236.725780000001
 20
2829.974584
 42
0.02431000000000009
 10
2236.330774
 20
2833.344396
 42
0.2657789999999859
 10
2235.5
 20
2834.361626
 42
-0.1493619999999529
 10
2234.848242000001
 20
2834.870536
 42
-0.07477699999998765
 10
2234.377721
 20
2835.815348
 42
-0.05327200000000029
 10
2234.090626
 20
2837.186968
 42
-0.02497699999999975
 10
2234
 20
2839
 42
-0.02497699999999986
 10
2234.090626000001
 20
2840.813032
 42
-0.05327199999999807
 10
2234.377721000001
 20
2842.184652
 42
-0.07477699999998921
 10
2234.848242
 20
2843.129464
 42
-0.149362000000019
 10
2235.5
 20
2843.638374
 42
0.1985399999999909
 10
2236.238843
 20
2844.338347
 42
0.06319799999999572
 10
2236.687258999999
 20
2845.818329
 42
0.03417099999999999
 10
2236.934252
 20
2848.288664
 42
0.007833999999999813
 10
2237
 20
2852.484544
 42
-0.009206999999999957
 10
2237.074449
 20
2856.52734
 42
-0.02989000000000014
 10
2237.332972
 20
2859.195543
 42
-0.04603000000000081
 10
2237.78386
 20
2860.973626
 42
-0.1352490000000106
 10
2238.5
 20
2862
 42
0.07389099999999468
 10
2239.074529
 20
2862.641271
 42
0.04456700000000035
 10
2239.559375
 20
2863.541642
 42
0.04360400000000034
 10
2239.889428
 20
2864.545202
 42
0.05771100000000087
 10
2240
 20
2865.5
 42
0.05771100000000087
 10
2239.889428
 20
2866.454798
 42
0.04360400000000034
 10
2239.559375
 20
2867.458358
 42
0.04456700000000035
 10
2239.074529
 20
2868.358729
 42
0.07389099999999468
 10
2238.5
 20
2869
 42
-0.1635209999999878
 10
2237.724795
 20
2870.253397
 42
-0.03356100000000013
 10
2237.297625000001
 20
2872.856854
 42
-0.01987299999999987
 10
2237.060623
 20
2877.100439
 42
-0.004013000000000065
 10
2237
 20
2884.65383
 42
-0.003590999999999866
 10
2237.055564000001
 20
2892.391238
 42
-0.02135499999999972
 10
2237.286012
 20
2896.425099
 42
-0.03960000000000004
 10
2237.707389
 20
2898.754898
 42
-0.241090000000033
 10
2238.5
 20
2899.638374
 42
0.06878500000000017
 10
2239.073469
 20
2899.954467
 42
0.06294500000000013
 10
2239.559375
 20
2900.422663
 42
0.06673300000000405
 10
2239.888365
 20
2900.965369
 42
0.1032900000000067
 10
2240
 20
2901.5
 42
0.1032900000000067
 10
2239.888365
 20
2902.034631
 42
0.06673300000000405
 10
2239.559375
 20
2902.577337
 42
0.06294500000000013
 10
2239.073469
 20
2903.045533
 42
0.06878500000000017
 10
2238.5
 20
2903.361626
 42
-0.1408060000000058
 10
2237.878342
 20
2903.830477
 42
-0.07131999999999723
 10
2237.402218000001
 20
2904.696976
 42
-0.05596599999999748
 10
2237.099343
 20
2905.891949
 42
-0.03411700000000027
 10
2237
 20
2907.34617
 42
-0.03961900000000103
 10
2237.110819
 20
2908.742518
 42
-0.03837099999999922
 10
2237.440625
 20
2910.119421
 42
-0.04094500000000101
 10
2237.923773
 20
2911.282722
 42
-0.1009859999999881
 10
2238.5
 20
2912
 42
0.1461080000000142
 10
2239.240593
 20
2913.111116
 42
0.04207799999999921
 10
2239.683186
 20
2915.151199
 42
0.0258110000000004
 10
2239.931860000001
 20
2918.336127
 42
0.006578000000000038
 10
2240
 20
2923.515456
 42
0.005709999999999999
 10
2239.938947000001
 20
2928.861627
 42
0.02865500000000007
 10
2239.699477
 20
2931.843649
 42
0.0543950000000014
 10
2239.260135
 20
2933.59261
 42
0.2156520000000162
 10
2238.5
 20
2934.361626
 42
-0.2991400000000031
 10
2237.014425
 20
2936.429148
 42
-0.01199199999999993
 10
2236.842271
 20
2946.134657
 42
-0.01503100000000002
 10
2237.190301
 20
2955.71625
 42
-0.1688780000000045
 10
2238.654988
 20
2959.171259
 42
0.02510099999999994
 10
2239.581246
 20
2960.304177
 42
0.1601439999999797
 10
2239.809975
 20
2961
 42
0.1601439999999797
 10
2239.581246
 20
2961.695823
 42
0.02510099999999994
 10
2238.654988
 20
2962.828741
 42
-0.1340619999999876
 10
2237.393252
 20
2965.318618
 42
-0.04737899999999983
 10
2236.959214
 20
2969.328974
 42
-0.04624100000000042
 10
2237.261371
 20
2973.131637
 42
-0.2640630000000451
 10
2238.5
 20
2974.638374000001
 42
0.1297839999999998
 10
2239.573324
 20
2975.411998
 42
0.1830480000000164
 10
2239.947306
 20
2976.518072
 42
0.1752110000000147
 10
2239.498915
 20
2977.63119
 42
0.1191970000000145
 10
2238.363881
 20
2978.413860000001
 42
-0.04783799999999951
 10
2237.505501
 20
2978.841295
 42
-0.2816650000000847
 10
2237.289993
 20
2979.271847
 42
-0.1505809999999666
 10
2237.528569
 20
2979.862394
 42
-0.01317700000000015
 10
2238.593067
 20
2981.102838
 42
0.01372300000000022
 10
2239.696677
 20
2982.391705
 42
0.1602930000000236
 10
2239.928661
 20
2983.00284
 42
0.2461629999999715
 10
2239.697295
 20
2983.497088
 42
0.03502600000000004
 10
2238.729186
 20
2984.131679
 42
-0.1302759999999931
 10
2237.54023
 20
2985.282956
 42
-0.1265109999999876
 10
2237.060904
 20
2986.884997
 42
-0.1200920000000025
 10
2237.405677000001
 20
2988.585775
 42
-0.1101999999999868
 10
2238.5
 20
2990
 42
0.1357449999999943
 10
2239.687265
 20
2991.705133
 42
0.1289740000000081
 10
2239.860261
 20
2993.813767
 42
0.1004699999999995
 10
2238.938358
 20
2996.156259
 42
0.057965999999999
 10
2237
 20
2998.5
 42
-0.03297600000000024
 10
2235.440114
 20
3000.205326
 42
-0.07448700000000166
 10
2234.563092
 20
3001.715093
 42
-0.06915899999999844
 10
2234.130812
 20
3003.485704
 42
-0.02534500000000013
 10
2234
 20
3006.064646
 42
-0.02375799999999991
 10
2234.097624
 20
3008.118045
 42
-0.03815000000000092
 10
2234.396302
 20
3009.844786
 42
-0.04624199999999965
 10
2234.86745
 20
3011.176883
 42
-0.1118870000000197
 10
2235.5
 20
3012
 42
0.2113140000000205
 10
2236.915475
 20
3014.845711
 42
0.0112680000000001
 10
2237.148552
 20
3025.186971
 42
0.009769000000000016
 10
2236.944649
 20
3035.62219
 42
0.2998599999999756
 10
2235.5
 20
3037.638374
 42
-0.1883620000000139
 10
2234.410057999999
 20
3038.631131
 42
-0.1255770000000004
 10
2234.054128
 20
3040.30253
 42
-0.1085700000000026
 10
2234.536015
 20
3042.141196
 42
-0.117235999999995
 10
2235.736725
 20
3043.549439
 42
0.03175700000000066
 10
2236.717207
 20
3044.366717
 42
0.2165889999999533
 10
2236.948327
 20
3044.935681
 42
0.1594000000000221
 10
2236.704528
 20
3045.589569
 42
0.01563699999999993
 10
2235.600605
 20
3046.888832
 42
-0.01315999999999998
 10
2234.532469
 20
3048.133433
 42
-0.149956000000024
 10
2234.291987
 20
3048.726494
 42
-0.2818479999999253
 10
2234.507046
 20
3049.158493
 42
-0.04829800000000188
 10
2235.363881
 20
3049.58614
 42
0.247670999999983
 10
2236.647696999999
 20
3051.053396
 42
0.05488500000000052
 10
2237.072999
 20
3054.477248
 42
0.05499699999999993
 10
2236.743488
 20
3057.900542
 42
0.2549549999999861
 10
2235.5
 20
3059.361626
 42
-0.1998490000000009
 10
2234.759489999999
 20
3060.066726
 42
-0.06257200000000476
 10
2234.311708
 20
3061.565041
 42
-0.03372799999999937
 10
2234.065350000001
 20
3064.070896
 42
-0.007641999999999771
 10
2234
 20
3068.34617
 42
0.00896799999999996
 10
2233.926081999999
 20
3072.467229
 42
0.02957799999999994
 10
2233.668394
 20
3075.171348
 42
0.04578700000000233
 10
2233.21811
 20
3076.967312
 42
0.1360569999999935
 10
2232.5
 20
3078
 42
-0.07430300000000956
 10
2231.925452999999
 20
3078.642348
 42
-0.04455600000000047
 10
2231.440625
 20
3079.546182
 42
-0.0435499999999995
 10
2231.110587
 20
3080.554739
 42
-0.05736499999999912
 10
2231
 20
3081.515456
 42
0.06112000000000045
 10
2230.88821
 20
3082.426555
 42
0.06028699999999703
 10
2230.559374999999
 20
3083.288127
 42
0.06576299999999498
 10
2230.073887
 20
3083.973417
 42
0.1146690000000182
 10
2229.5
 20
3084.361626
 42
-0.1862549999999721
 10
2228.777496
 20
3085.014346
 42
-0.0685820000000054
 10
2228.323469999999
 20
3086.336166
 42
-0.03852500000000087
 10
2228.069903
 20
3088.495403
 42
-0.009972000000000177
 10
2228
 20
3092
 42
0.009971999999999955
 10
2227.930097
 20
3095.504597
 42
0.0385250000000002
 10
2227.67653
 20
3097.663834
 42
0.06858200000000106
 10
2227.222503999999
 20
3098.985654
 42
0.1862549999999721
 10
2226.5
 20
3099.638374
 42
-0.1455020000000357
 10
2225.860436999999
 20
3100.130028
 42
-0.07365899999999839
 10
2225.387619
 20
3101.039596
 42
-0.05465000000000081
 10
2225.094223
 20
3102.332552
 42
-0.02849499999999978
 10
2225
 20
3103.984544
 42
0.03473399999999947
 10
2224.8915
 20
3105.544534
 42
0.03795000000000052
 10
2224.568006
 20
3107.027725
 42
0.04143500000000039
 10
2224.087482
 20
3108.254129
 42
0.1058480000000053
 10
2223.5
 20
3109
 42
-0.05980600000000643
 10
2222.925909
 20
3109.605712999999
 42
-0.04389900000000094
 10
2222.440625
 20
3110.394767
 42
-0.04460099999999921
 10
2222.109626
 20
3111.23689
 42
-0.07146100000000671
 10
2222
 20
3112
 42
0.07146100000000193
 10
2221.890374
 20
3112.76311
 42
0.04460099999999921
 10
2221.559375
 20
3113.605233
 42
0.04389899999999871
 10
2221.074091
 20
3114.394287000001
 42
0.05980600000000654
 10
2220.5
 20
3115
 42
-0.05883799999999747
 10
2219.925928
 20
3115.603356
 42
-0.0437700000000015
 10
2219.440625
 20
3116.385207
 42
-0.04459300000000273
 10
2219.10952
 20
3117.216848
 42
-0.07256999999998667
 10
2219
 20
3117.967457
 42
0.08904799999999791
 10
2218.858274
 20
3118.75693
 42
0.0400000000000013
 10
2218.4125
 20
3119.715701
 42
0.03793699999999973
 10
2217.765298
 20
3120.680216
 42
0.04212200000000138
 10
2217
 20
3121.5
 42
-0.04924399999999984
 10
2216.23146
 20
3122.34708
 42
-0.03915199999999877
 10
2215.575061
 20
3123.393705
 42
-0.04044300000000081
 10
2215.118117
 20
3124.471344
 42
-0.07513800000000813
 10
2214.957652999999
 20
3125.404988
 42
0.1020259999999855
 10
2214.735787
 20
3126.380826
 42
0.03906899999999957
 10
2214.058935
 20
3127.605185
 42
0.03665699999999929
 10
2213.092528
 20
3128.859722
 42
0.03719599999999977
 10
2211.957653
 20
3129.953089
 42
-0.03230300000000069
 10
2210.825785999999
 20
3131.022423999999
 42
-0.03459400000000124
 10
2209.868810999999
 20
3132.205695
 42
-0.03692900000000085
 10
2209.199966
 20
3133.328943
 42
-0.1163320000000062
 10
2209
 20
3134.176773
 42
0.1336950000000041
 10
2208.742383
 20
3135.123004
 42
0.02207900000000012
 10
2207.702802
 20
3136.724454
 42
0.02290400000000002
 10
2206.274785
 20
3138.542833
 42
0.01846999999999981
 10
2204.584008
 20
3140.36336
 42
-0.02080699999999991
 10
2202.869117
 20
3142.227247
 42
-0.02270499999999988
 10
2201.367099
 20
3144.1755
 42
-0.02291700000000028
 10
2200.242759
 20
3145.94692
 42
-0.09507300000000185
 10
2199.834008
 20
3147.139676
 42
0.06535400000000353
 10
2199.524394
 20
3148.253631
 42
0.1118649999999946
 10
2198.962999
 20
3149.032687
 42
0.103017000000003
 10
2198.084156
 20
3149.533847000001
 42
0.04953400000000277
 10
2196.810577
 20
3149.810577
 42
-0.04906100000000183
 10
2195.475702
 20
3150.099306
 42
-0.1191439999999954
 10
2194.621154
 20
3150.621154
 42
-0.1191439999999837
 10
2194.099306
 20
3151.475702
 42
-0.04906100000000205
 10
2193.810577
 20
3152.810577
 42
0.04958099999999994
 10
2193.528173
 20
3154.109685
 42
0.1090219999999879
 10
2193.016708
 20
3154.981975
 42
0.1143870000000106
 10
2192.203854
 20
3155.532732
 42
0.05794199999999823
 10
2191
 20
3155.84265
 42
-0.1092730000000106
 10
2189.617628
 20
3156.353364999999
 42
-0.02236400000000011
 10
2187.479151
 20
3157.868121
 42
-0.02127799999999992
 10
2184.986471
 20
3159.982921
 42
-0.01435599999999984
 10
2182.320972
 20
3162.59265
 42
0.01400199999999994
 10
2179.81811
 20
3165.046616
 42
0.01877300000000004
 10
2177.408343
 20
3167.117841
 42
0.01613999999999995
 10
2175.323111
 20
3168.670947
 42
0.1531550000000105
 10
2174.274061
 20
3169
 42
-0.1125099999999841
 10
2173.387571
 20
3169.202035
 42
-0.03804000000000036
 10
2172.234274
 20
3169.868811
 42
-0.03557000000000053
 10
2171.029636
 20
3170.825838
 42
-0.03399400000000043
 10
2169.953089
 20
3171.957653
 42
0.03968400000000067
 10
2168.83919
 20
3173.102399
 42
0.0387519999999994
 10
2167.549974
 20
3174.066816
 42
0.04148400000000092
 10
2166.274219
 20
3174.734031
 42
0.09538599999999563
 10
2165.218615
 20
3174.957652999999
 42
-0.06022700000000402
 10
2164.303365
 20
3175.085576999999
 42
-0.05902800000000505
 10
2163.438304
 20
3175.428185999999
 42
-0.06427800000000949
 10
2162.750305999999
 20
3175.922889999999
 42
-0.113638999999984
 10
2162.361626
 20
3176.5
 42
0.1146690000000182
 10
2161.973417
 20
3177.073887
 42
0.06576299999999509
 10
2161.288127
 20
3177.559374999999
 42
0.06028700000000071
 10
2160.426555
 20
3177.88821
 42
0.06112000000000067
 10
2159.515456
 20
3178
 42
-0.05736499999999912
 10
2158.554739
 20
3178.110587
 42
-0.04354999999999928
 10
2157.546182
 20
3178.440625
 42
-0.0445559999999998
 10
2156.642348
 20
3178.925452999999
 42
-0.07430300000000956
 10
2155.999999999999
 20
3179.5
 42
0.05980599999999562
 10
2155.394287
 20
3180.074091
 42
0.04389899999999871
 10
2154.605233
 20
3180.559375
 42
0.04460099999999921
 10
2153.76311
 20
3180.890374
 42
0.07146100000000694
 10
2153
 20
3181
 42
-0.07146100000000181
 10
2152.23689
 20
3181.109626
 42
-0.04460099999999921
 10
2151.394767
 20
3181.440625
 42
-0.04389899999999871
 10
2150.605712999999
 20
3181.925909
 42
-0.05980600000000643
 10
2150
 20
3182.5
 42
0.0977779999999956
 10
2149.292309
 20
3183.075963
 42
0.04163700000000106
 10
2148.164608
 20
3183.559375
 42
0.0391150000000011
 10
2146.837486
 20
3183.889157000001
 42
0.04136599999999942
 10
2145.5
 20
3184
 42
-0.04136599999999831
 10
2144.162514
 20
3184.110843
 42
-0.03911500000000043
 10
2142.835392
 20
3184.440625
 42
-0.04163700000000094
 10
2141.707691
 20
3184.924037
 42
-0.09777800000000748
 10
2141
 20
3185.5
 42
0.1150700000000049
 10
2140.143979
 20
3186.14932
 42
0.04743399999999899
 10
2138.756363
 20
3186.61689
 42
0.03739300000000039
 10
2136.906052
 20
3186.906881
 42
0.02018000000000006
 10
2134.599796
 20
3187
 42
-0.01916199999999966
 10
2132.000182
 20
3187.099662000001
 42
-0.05173100000000103
 10
2130.184749
 20
3187.43003
 42
-0.07117200000000477
 10
2128.835879
 20
3188.041291999999
 42
-0.07391199999999715
 10
2127.732028
 20
3189
 42
0.07983999999999829
 10
2126.551735
 20
3190.00094
 42
0.07562799999999727
 10
2125.095571
 20
3190.604695
 42
0.04777600000000005
 10
2123.001812
 20
3190.913855
 42
0.01278100000000001
 10
2119.632232
 20
3191
 42
-0.01403000000000005
 10
2116.646397
 20
3191.083799
 42
-0.03449999999999998
 10
2114.470284
 20
3191.357435
 42
-0.04822899999999886
 10
2112.931395
 20
3191.817405
 42
-0.1234320000000033
 10
2112
 20
3192.5
 42
0.1351579999999907
 10
2110.974336
 20
3193.215917
 42
0.04605599999999914
 10
2109.198248
 20
3193.666873
 42
0.02992499999999999
 10
2106.534059
 20
3193.925491
 42
0.009234000000000015
 10
2102.5
 20
3194
 42
-0.009234000000000015
 10
2098.465941
 20
3194.074509
 42
-0.02992499999999999
 10
2095.801752
 20
3194.333127
 42
-0.04605599999999914
 10
2094.025664
 20
3194.784083
 42
-0.1351579999999907
 10
2093
 20
3195.5
 42
0.1572919999999984
 10
2091.799078
 20
3196.263068000001
 42
0.03683700000000085
 10
2089.423909
 20
3196.6962
 42
0.02191399999999981
 10
2085.60221
 20
3196.936962
 42
0.004773999999999987
 10
2079
 20
3197
 42
-0.004773999999999765
 10
2072.39779
 20
3197.063038
 42
-0.02191400000000003
 10
2068.576091
 20
3197.3038
 42
-0.03683700000000085
 10
2066.200922
 20
3197.736932
 42
-0.1572919999999779
 10
2065
 20
3198.5
 42
0.1775579999999967
 10
2063.618081
 20
3199.303427
 42
0.02555100000000018
 10
2060.322903
 20
3199.71439
 42
0.01554699999999993
 10
2054.844278
 20
3199.944046
 42
0.00270099999999997
 10
2044.484544
 20
3200
 42
-0.002472000000000048
 10
2033.929741
 20
3200.052194
 42
-0.0163879999999999
 10
2028.665406
 20
3200.276927
 42
-0.02800400000000006
 10
2025.620745
 20
3200.679411
 42
-0.2598639999999703
 10
2024.638374
 20
3201.5
 42
0.2681279999999632
 10
2023.606674
 20
3202.335075
 42
0.02284300000000002
 10
2020.086832
 20
3202.726844
 42
0.01423999999999999
 10
2014.02954
 20
3202.949187
 42
0.00205299999999997
 10
2001.65383
 20
3203
 42
-0.002218999999999948
 10
1989.477811
 20
3203.054033999999
 42
-0.01361400000000006
 10
1983.204298
 20
3203.280622999999
 42
-0.02159500000000028
 10
1979.44889
 20
3203.682145
 42
-0.1841329999999966
 10
1978
 20
3204.5
 42
0.1778820000000121
 10
1976.614894
 20
3205.304113
 42
0.02535799999999993
 10
1973.29963
 20
3205.714644
 42
0.01545099999999995
 10
1967.785928
 20
3205.944144
 42
0.00267500000000001
 10
1957.346169999999
 20
3206
 42
-0.002451000000000035
 10
1946.711108999999
 20
3206.052123
 42
-0.01628000000000007
 10
1941.411795
 20
3206.276735
 42
-0.0277439999999998
 10
1938.346381
 20
3206.678722
 42
-0.2602799999999606
 10
1937.361626
 20
3207.5
 42
0.2678100000000125
 10
1936.331909
 20
3208.334483
 42
0.02304199999999979
 10
1932.833202
 20
3208.7267
 42
0.01432299999999998
 10
1926.810858
 20
3208.949135000001
 42
0.002068000000000037
 10
1914.515456
 20
3209
 42
-0.002237000000000139
 10
1902.419568999999
 20
3209.054107
 42
-0.01368999999999991
 10
1896.181078
 20
3209.280813
 42
-0.02175199999999993
 10
1892.446156
 20
3209.682735
 42
-0.1838749999999919
 10
1891
 20
3210.5
 42
0.180796000000001
 10
1889.585759
 20
3211.310388
 42
0.02361500000000001
 10
1886.078832
 20
3211.716885
 42
0.01459000000000005
 10
1880.232281
 20
3211.945008000001
 42
0.002454999999999988
 10
1869.032543
 20
3212
 42
-0.001880000000000021
 10
1856.268199
 20
3212.047993
 42
-0.02025499999999989
 10
1851.108699
 20
3212.295963999999
 42
-0.05430800000000145
 10
1848.274221
 20
3212.861805
 42
-0.1332010000000047
 10
1846.5
 20
3214
 42
0.1410940000000082
 10
1844.641649
 20
3215.151921000001
 42
0.04913599999999959
 10
1841.51104
 20
3215.709849
 42
0.01798900000000004
 10
1835.727218
 20
3215.954061
 42
0.001555999999999999
 10
1820.967456999999
 20
3216
 42
-0.002063000000000014
 10
1808.030529999999
 20
3216.053384
 42
-0.01293900000000014
 10
1801.424643
 20
3216.278927
 42
-0.02017600000000014
 10
1797.473932
 20
3216.67673
 42
-0.1864600000000154
 10
1796
 20
3217.5
 42
0.1838749999999969
 10
1794.553844
 20
3218.317265
 42
0.02175200000000016
 10
1790.818922
 20
3218.719187000001
 42
0.01369000000000002
 10
1784.580431
 20
3218.945893
 42
0.002236999999999917
 10
1772.484544
 20
3219
 42
-0.002068000000000037
 10
1760.189142
 20
3219.050865
 42
-0.01432299999999976
 10
1754.166798
 20
3219.2733
 42
-0.02304199999999979
 10
1750.668091
 20
3219.665517
 42
-0.2678099999999554
 10
1749.638374
 20
3220.5
 42
0.2681280000000085
 10
1748.606674
 20
3221.335075
 42
0.02284300000000002
 10
1745.086832
 20
3221.726844
 42
0.01423999999999999
 10
1739.02954
 20
3221.949187
 42
0.00205299999999997
 10
1726.65383
 20
3222
 42
-0.002218999999999948
 10
1714.477811
 20
3222.054033999999
 42
-0.01361400000000006
 10
1708.204298
 20
3222.280622999999
 42
-0.02159500000000028
 10
1704.44889
 20
3222.682145
 42
-0.1841329999999966
 10
1703
 20
3223.5
 42
0.1889110000000158
 10
1701.498808
 20
3224.329194
 42
0.01867400000000001
 10
1697.318476
 20
3224.722828
 42
0.01223000000000004
 10
1690.32502
 20
3224.947287
 42
0.001906000000000103
 10
1676.499999999999
 20
3225
 42
-0.001906000000000103
 10
1662.674979999999
 20
3225.052713
 42
-0.01223000000000004
 10
1655.681524
 20
3225.277172
 42
-0.01867400000000001
 10
1651.501192
 20
3225.670806
 42
-0.1889110000000158
 10
1650
 20
3226.5
 42
0.1996170000000101
 10
1648.366557
 20
3227.358748
 42
0.01208099999999995
 10
1642.728979
 20
3227.730255
 42
0.009120999999999978
 10
1633.336063
 20
3227.950106
 42
0.001290000000000023
 10
1614
 20
3228
 42
-0.001290000000000023
 10
1594.663937
 20
3228.049894000001
 42
-0.009121000000000089
 10
1585.271021
 20
3228.269745000001
 42
-0.01208099999999995
 10
1579.633443
 20
3228.641251999999
 42
-0.1996170000000346
 10
1578
 20
3229.5
 42
0.1865149999999827
 10
1576.525468
 20
3230.3234
 42
0.02014300000000006
 10
1572.5699
 20
3230.721113000001
 42
0.01292300000000005
 10
1565.955781
 20
3230.946631000001
 42
0.002059999999999991
 10
1553
 20
3231
 42
-0.002060000000000102
 10
1540.044219
 20
3231.053369
 42
-0.01292300000000005
 10
1533.4301
 20
3231.278887
 42
-0.02014300000000028
 10
1529.474532
 20
3231.6766
 42
-0.1865150000000093
 10
1528
 20
3232.5
 42
0.1997439999999991
 10
1526.364831
 20
3233.359146
 42
0.01200299999999992
 10
1520.703268
 20
3233.730343
 42
0.009083000000000022
 10
1511.271529
 20
3233.950138000001
 42
0.001282999999999969
 10
1491.846169999998
 20
3234
 42
-0.001217999999999947
 10
1472.210935999998
 20
3234.047819
 42
-0.00934399999999978
 10
1462.999683
 20
3234.264864
 42
-0.01161900000000001
 10
1457.522134
 20
3234.624069
 42
-0.2863819999999737
 10
1456.361626
 20
3235.5
 42
0.2794349999999716
 10
1455.254171
 20
3236.358471
 42
0.01583200000000004
 10
1450.753281
 20
3236.731944
 42
0.01125700000000003
 10
1443.098475
 20
3236.951035999999
 42
0.001525000000000046
 10
1427.047998999998
 20
3237
 42
-0.001201999999999952
 10
1408.948074999998
 20
3237.043509
 42
-0.01514399999999994
 10
1402.122233
 20
3237.283144
 42
-0.04162599999999993
 10
1398.484988
 20
3237.827585
 42
-0.152016999999993
 10
1396.5
 20
3239
 42
0.163877
 10
1394.359914
 20
3240.198104
 42
0.03314599999999952
 10
1389.97447
 20
3240.72348
 42
0.01233999999999999
 10
1381.659264
 20
3240.958736999999
 42
0.0009010000000000729
 10
1358.773583999998
 20
3240.999999999999
 42
-0.001265000000000052
 10
1338.841852999997
 20
3241.050413
 42
-0.008753000000000084
 10
1329.072335
 20
3241.270882
 42
-0.01176199999999992
 10
1323.190095
 20
3241.645449
 42
-0.1763660000000142
 10
1321.357143
 20
3242.5
 42
0.1766679999999952
 10
1319.519206
 20
3243.355564
 42
0.01157699999999997
 10
1313.574195
 20
3243.729350999999
 42
0.008662000000000045
 10
1303.7024
 20
3243.949676
 42
0.001247999999999924
 10
1283.535559999999
 20
3243.999999999999
 42
-0.001163999999999902
 10
1263.079549
 20
3244.047612
 42
-0.00899400000000003
 10
1253.512093
 20
3244.264286000001
 42
-0.01088600000000003
 10
1247.80896
 20
3244.620634
 42
-0.2876129999999529
 10
1246.638374
 20
3245.5
 42
0.2750959999999828
 10
1245.561316
 20
3246.34889
 42
0.01850799999999999
 10
1241.499718
 20
3246.729984000001
 42
0.01241399999999998
 10
1234.554897
 20
3246.950328000001
 42
0.001723000000000015
 10
1220.138373999999
 20
3247
 42
-0.001722999999999904
 10
1205.72185
 20
3247.049672000001
 42
-0.01241399999999998
 10
1198.777029
 20
3247.270016
 42
-0.01850799999999999
 10
1194.715431
 20
3247.65111
 42
-0.2750960000000252
 10
1193.638374
 20
3248.5
 42
0.2868439999999619
 10
1192.474112
 20
3249.377205
 42
0.01134300000000008
 10
1186.914325
 20
3249.735352
 42
0.009212999999999992
 10
1177.573094
 20
3249.952259
 42
0.001196999999999941
 10
1157.638373999999
 20
3250.000000000001
 42
-0.001196999999999941
 10
1137.703653
 20
3250.047741
 42
-0.009213000000000214
 10
1128.362423
 20
3250.264647999999
 42
-0.01134299999999985
 10
1122.802635
 20
3250.622794999999
 42
-0.2868440000000573
 10
1121.638374
 20
3251.5
 42
0.2775239999999628
 10
1120.544537
 20
3252.354144
 42
0.01700799999999994
 10
1116.249298
 20
3252.731079
 42
0.01176899999999997
 10
1108.925938
 20
3252.950724
 42
0.0016120000000001
 10
1093.638373999998
 20
3253
 42
-0.001611999999999878
 10
1078.350809999999
 20
3253.049276000001
 42
-0.01176899999999986
 10
1071.02745
 20
3253.268921
 42
-0.01700800000000016
 10
1066.732211
 20
3253.645855999999
 42
-0.2775240000000764
 10
1065.638374
 20
3254.5
 42
0.2970529999999919
 10
1064.380956
 20
3255.410821
 42
0.005485000000000081
 10
1055.805991
 20
3255.740401999999
 42
0.006114999999999906
 10
1041.766654
 20
3255.95405
 42
0.0007470000000000582
 10
1010.999999999995
 20
3256
 42
-0.0007469999999998361
 10
980.2333460000023
 20
3256.04595
 42
-0.006115000000000128
 10
966.1940089999996
 20
3256.259598000001
 42
-0.005484999999999859
 10
957.619044
 20
3256.589179000001
 42
-0.2970530000000371
 10
956.3616259999998
 20
3257.5
 42
0.2911879999999898
 10
955.16034
 20
3258.39009
 42
0.008786000000000075
 10
948.662419
 20
3258.737427
 42
0.007949999999999973
 10
937.8472549999999
 20
3258.952998000001
 42
0.001007000000000054
 10
914.5154560000003
 20
3259.000000000001
 42
-0.001054000000000103
 10
891.3963419999982
 20
3259.048723000001
 42
-0.007763000000000055
 10
880.3595179999998
 20
3259.266627
 42
-0.009320999999999956
 10
873.6980139999999
 20
3259.626090000001
 42
-0.2041470000000029
 10
871.9999999999999
 20
3260.5
 42
0.21448999999997
 10
870.121266
 20
3261.4203
 42
0.003361000000000086
 10
857.8841989999999
 20
3261.740943
 42
0.004337000000000023
 10
838.1504669999989
 20
3261.954088999999
 42
0.0005319999999999275
 10
794.9845439999986
 20
3262
 42
0.0005179999999999046
 10
751.5989460000013
 20
3261.955015
 42
0.004392999999999919
 10
732.0897770000001
 20
3261.743152
 42
0.002964000000000027
 10
719.9504749999999
 20
3261.432655000001
 42
0.301925000000076
  0
LWPOLYLINE
  5
4E
100
AcDbEntity
  8
0
  6
ByLayer
 62
  256
370
   -1
100
AcDbPolyline
 90
   80
 70
    1
 43
0
 10
1746.638374
 20
2995.5
 42
0.1086449999999859
 10
1747.017482
 20
2994.924939
 42
0.06570899999999341
 10
1747.674403
 20
2994.435550000001
 42
0.06107899999999732
 10
1748.49468
 20
2994.101207
 42
0.06433099999999875
 10
1749.356989
 20
2993.982723
 42
-0.1369389999999907
 10
1751.461239
 20
2993.377076
 42
-0.06315999999999954
 10
1753.698025
 20
2991.573505
 42
-0.06290000000000048
 10
1755.427434
 20
2989.252787
 42
-0.1294130000000033
 10
1756
 20
2987.077668
 42
0.06468999999999984
 10
1756.111906
 20
2986.216349
 42
0.06162500000000001
 10
1756.440625
 20
2985.3969
 42
0.06634499999999779
 10
1756.926257
 20
2984.740659
 42
0.1091330000000096
 10
1757.5
 20
2984.361626
 42
-0.1523199999999913
 10
1758.160003
 20
2983.840106
 42
-0.07526299999999796
 10
1758.628932
 20
2982.868144
 42
-0.05212000000000053
 10
1758.911838
 20
2981.436725
 42
-0.02274900000000006
 10
1759
 20
2979.5
 42
-0.02274900000000006
 10
1758.911838
 20
2977.563275
 42
-0.0521200000000003
 10
1758.628932
 20
2976.131856
 42
-0.07526299999999807
 10
1758.160003
 20
2975.159894
 42
-0.1523200000000065
 10
1757.5
 20
2974.638374
 42
0.1043629999999867
 10
1756.926359000001
 20
2974.267132
 42
0.0666799999999963
 10
1756.440625
 20
2973.635134
 42
0.06271000000000287
 10
1756.111994
 20
2972.850994
 42
0.06800600000000021
 10
1756
 20
2972.031385
 42
-0.127057000000001
 10
1755.498294
 20
2970.088915
 42
-0.06614400000000105
 10
1753.99886
 20
2968.064948
 42
-0.06649900000000016
 10
1752.037333
 20
2966.516382
 42
-0.1346769999999934
 10
1750.154988
 20
2966
 42
0.08468400000000652
 10
1749.317947
 20
2965.857209
 42
0.04071300000000071
 10
1748.320267
 20
2965.4125
 42
0.03883300000000006
 10
1747.328807
 20
2964.765311
 42
0.04485299999999976
 10
1746.5
 20
2964
 42
-0.06247200000000099
 10
1745.609901
 20
2963.234238
 42
-0.04188500000000012
 10
1744.43151
 20
2962.5875
 42
-0.0419009999999989
 10
1743.162562
 20
2962.146505000001
 42
-0.06276099999999656
 10
1742
 20
2962
 42
-0.06276099999999946
 10
1740.837438
 20
2962.146505
 42
-0.04190099999999912
 10
1739.56849
 20
2962.5875
 42
-0.04188500000000012
 10
1738.390099
 20
2963.234238
 42
-0.06247200000000099
 10
1737.5
 20
2964
 42
0.04485299999999965
 10
1736.671193
 20
2964.765311
 42
0.03883300000000017
 10
1735.679733
 20
2965.4125
 42
0.04071300000000071
 10
1734.682053
 20
2965.857209
 42
0.08468400000000652
 10
1733.845012
 20
2966
 42
-0.1342359999999978
 10
1731.993253
 20
2966.506267
 42
-0.06369100000000034
 10
1730.025338
 20
2968.036615
 42
-0.0636420000000006
 10
1728.50374
 20
2970.015455
 42
-0.1328729999999975
 10
1728
 20
2971.877555
 42
0.06755899999999997
 10
1727.890037
 20
2972.687666
 42
0.04453299999999939
 10
1727.559375
 20
2973.569265
 42
0.04427899999999878
 10
1727.074176
 20
2974.385461
 42
0.06339300000000485
 10
1726.5
 20
2975
 42
-0.105848000000003
 10
1725.912518
 20
2975.745871
 42
-0.04143500000000039
 10
1725.431994
 20
2976.972275
 42
-0.03795000000000074
 10
1725.1085
 20
2978.455466
 42
-0.03473399999999958
 10
1725
 20
2980.015456
 42
-0.02849499999999967
 10
1725.094223
 20
2981.667448
 42
-0.05464999999999891
 10
1725.387619
 20
2982.960404
 42
-0.07365899999999996
 10
1725.860437
 20
2983.869972
 42
-0.1455020000000201
 10
1726.5
 20
2984.361626
 42
0.1020690000000135
 10
1727.073599
 20
2984.729157
 42
0.06678199999999788
 10
1727.559375
 20
2985.349731
 42
0.0632059999999998
 10
1727.887969
 20
2986.117187
 42
0.06968800000000316
 10
1728
 20
2986.917093
 42
-0.1366279999999993
 10
1728.600085
 20
2989.07215
 42
-0.05728299999999936
 10
1730.456885
 20
2991.476545
 42
-0.05738100000000169
 10
1732.798289
 20
2993.385985000001
 42
-0.1433430000000143
 10
1734.896056
 20
2994
 42
0.06393700000000213
 10
1735.767426
 20
2994.111884
 42
0.06135700000000027
 10
1736.595381
 20
2994.440625
 42
0.06624199999999909
 10
1737.257477
 20
2994.92623
 42
0.1102639999999947
 10
1737.638374
 20
2995.5
 42
-0.1475299999999786
 10
1738.139226
 20
2996.146201
 42
-0.07432199999999978
 10
1739.067304
 20
2996.617776000001
 42
-0.05394800000000285
 10
1740.40173
 20
2996.907726
 42
-0.02654800000000041
 10
1742.138374
 20
2997
 42
-0.02654799999999996
 10
1743.875017
 20
2996.907726
 42
-0.05394800000000152
 10
1745.209443
 20
2996.617776
 42
-0.07432200000000491
 10
1746.137521
 20
2996.146201
 42
-0.1475300000000047
  0
LWPOLYLINE
  5
4F
100
AcDbEntity
  8
0
  6
ByLayer
 62
  256
370
   -1
100
AcDbPolyline
 90
  144
 70
    1
 43
0
 10
2009.361626
 20
2732.5
 42
0.1493619999999906
 10
2009.870536
 20
2731.848242
 42
0.07477699999999479
 10
2010.815348
 20
2731.377721
 42
0.05327199999999829
 10
2012.186968
 20
2731.090626000001
 42
0.02497699999999953
 10
2014
 20
2731
 42
-0.02497700000000009
 10
2015.813032
 20
2730.909373999999
 42
-0.05327199999999807
 10
2017.184652
 20
2730.622278999999
 42
-0.07477699999999145
 10
2018.129464
 20
2730.151758
 42
-0.1493620000000149
 10
2018.638374
 20
2729.5
 42
0.1034430000000039
 10
2019.008124
 20
2728.926376
 42
0.06672599999999566
 10
2019.635525
 20
2728.440625
 42
0.06291100000000338
 10
2020.412953
 20
2728.112009
 42
0.06867299999999343
 10
2021.224636
 20
2728
 42
-0.1671630000000089
 10
2023.585893
 20
2727.187875
 42
-0.03072700000000019
 10
2027.089937
 20
2724.089937
 42
-0.03072699999999997
 10
2030.187875
 20
2720.585893
 42
-0.1671629999999998
 10
2031
 20
2718.224636
 42
0.06867299999999857
 10
2031.112009
 20
2717.412953
 42
0.06291099999999804
 10
2031.440625
 20
2716.635525
 42
0.06672600000000392
 10
2031.926376
 20
2716.008124
 42
0.1034430000000048
 10
2032.5
 20
2715.638374
 42
-0.1493619999999674
 10
2033.151758
 20
2715.129464
 42
-0.07477699999999926
 10
2033.622279
 20
2714.184652
 42
-0.0532720000000004
 10
2033.909374
 20
2712.813032
 42
-0.02497699999999997
 10
2034
 20
2711
 42
0.02497699999999975
 10
2034.090626
 20
2709.186968
 42
0.05327200000000119
 10
2034.377721
 20
2707.815348
 42
0.07477699999999926
 10
2034.848242
 20
2706.870536
 42
0.1493619999999677
 10
2035.5
 20
2706.361626000001
 42
-0.1715480000000324
 10
2036.200066
 20
2705.764515
 42
-0.07344500000000108
 10
2036.660318
 20
2704.606099
 42
-0.0442120000000001
 10
2036.923809
 20
2702.778592
 42
-0.01370800000000016
 10
2037
 20
2700
 42
-0.01370800000000016
 10
2036.923809
 20
2697.221408
 42
-0.0442120000000001
 10
2036.660318
 20
2695.393901
 42
-0.0734449999999984
 10
2036.200066
 20
2694.235485
 42
-0.1715479999999956
 10
2035.5
 20
2693.638374
 42
0.1473259999999858
 10
2034.854443
 20
2693.138433
 42
0.07426300000000464
 10
2034.382747
 20
2692.212219
 42
0.05402100000000096
 10
2034.092464
 20
2690.881955
 42
0.02673400000000001
 10
2034
 20
2689.15383
 42
-0.03262300000000033
 10
2033.893299
 20
2687.520213
 42
-0.03821200000000025
 10
2033.574448
 20
2686.000684
 42
-0.04242599999999967
 10
2033.095616
 20
2684.75887
 42
-0.1067140000000041
 10
2032.5
 20
2684
 42
0.05468700000000157
 10
2031.925997
 20
2683.406628
 42
0.04307600000000135
 10
2031.440625
 20
2682.655088
 42
0.04440800000000035
 10
2031.108981
 20
2681.867574
 42
0.07761199999999283
 10
2031
 20
2681.169718
 42
-0.1730610000000161
 10
2030.280832
 20
2679.154156
 42
-0.02376899999999997
 10
2027.249601
 20
2675.787246
 42
-0.02366499999999988
 10
2023.913584
 20
2672.722979
 42
-0.1756849999999883
 10
2021.919497
 20
2672
 42
0.07426199999999245
 10
2021.18732
 20
2671.890651
 42
0.04455700000000035
 10
2020.371119
 20
2671.559375
 42
0.04355500000000127
 10
2019.599874
 20
2671.074045
 42
0.05739899999999772
 10
2019
 20
2670.5
 42
-0.1067140000000149
 10
2018.24113
 20
2669.904384
 42
-0.04242599999999856
 10
2016.999316
 20
2669.425552000001
 42
-0.03821199999999891
 10
2015.479787
 20
2669.106701000001
 42
-0.03262299999999988
 10
2013.84617
 20
2669
 42
0.02673400000000012
 10
2012.118045
 20
2668.907536
 42
0.05402100000000107
 10
2010.787781
 20
2668.617253
 42
0.07426300000000108
 10
2009.861567
 20
2668.145557
 42
0.1473259999999994
 10
2009.361626
 20
2667.5
 42
-0.1713590000000069
 10
2008.765231
 20
2666.800253
 42
-0.07349299999999406
 10
2007.608768
 20
2666.339922000001
 42
-0.04428799999999982
 10
2005.7853
 20
2666.076284000001
 42
-0.0137679999999998
 10
2003.015456
 20
2666
 42
-0.01664499999999991
 10
2000.371355
 20
2666.088045
 42
-0.03603299999999891
 10
1998.357958
 20
2666.368918000001
 42
-0.0481729999999984
 10
1996.895436
 20
2666.832432000001
 42
-0.1192820000000004
 10
1996
 20
2667.5
 42
0.09777799999999572
 10
1995.292309
 20
2668.075963
 42
0.04163700000000205
 10
1994.164608
 20
2668.559375
 42
0.03911500000000088
 10
1992.837486
 20
2668.889157
 42
0.0413659999999982
 10
1991.5
 20
2669
 42
-0.04136599999999942
 10
1990.162514
 20
2669.110842999999
 42
-0.03911500000000154
 10
1988.835392
 20
2669.440625
 42
-0.04163700000000094
 10
1987.707691
 20
2669.924037
 42
-0.0977779999999956
 10
1987
 20
2670.5
 42
0.05468699999999477
 10
1986.406628
 20
2671.074003
 42
0.04307599999999946
 10
1985.655088
 20
2671.559375
 42
0.04440799999999812
 10
1984.867574
 20
2671.891019000001
 42
0.07761200000001371
 10
1984.169718
 20
2672
 42
-0.1730610000000051
 10
1982.154156
 20
2672.719168
 42
-0.02376899999999997
 10
1978.787246
 20
2675.750399
 42
-0.02366499999999966
 10
1975.722979
 20
2679.086416
 42
-0.1756849999999952
 10
1975
 20
2681.080503
 42
0.07426199999999893
 10
1974.890651
 20
2681.81268
 42
0.04455700000000024
 10
1974.559375
 20
2682.628881
 42
0.04355500000000071
 10
1974.074045
 20
2683.400126
 42
0.05739900000000251
 10
1973.5
 20
2684
 42
-0.09777800000000256
 10
1972.924037
 20
2684.707691
 42
-0.04163699999999849
 10
1972.440625
 20
2685.835392
 42
-0.03911499999999999
 10
1972.110843
 20
2687.162514
 42
-0.04136600000000053
 10
1972
 20
2688.5
 42
0.04136600000000065
 10
1971.889157
 20
2689.837486
 42
0.0391150000000001
 10
1971.559375
 20
2691.164608
 42
0.04163699999999861
 10
1971.075963
 20
2692.292309
 42
0.09777800000000759
 10
1970.5
 20
2693
 42
-0.1192819999999914
 10
1969.832432
 20
2693.895436
 42
-0.04817300000000017
 10
1969.368918
 20
2695.357958
 42
-0.03603300000000069
 10
1969.088045
 20
2697.371355
 42
-0.0166449999999998
 10
1969
 20
2700.015456
 42
-0.01376799999999991
 10
1969.076284
 20
2702.7853
 42
-0.0442879999999996
 10
1969.339922
 20
2704.608768
 42
-0.07349299999999798
 10
1969.800253
 20
2705.765231
 42
-0.171358999999946
 10
1970.5
 20
2706.361625999999
 42
0.1473259999999851
 10
1971.145557
 20
2706.861567
 42
0.07426300000000464
 10
1971.617253
 20
2707.787781
 42
0.05402100000000084
 10
1971.907536
 20
2709.118045
 42
0.02673399999999968
 10
1972
 20
2710.84617
 42
-0.0326230000000001
 10
1972.106701
 20
2712.479787
 42
-0.03821199999999969
 10
1972.425552
 20
2713.999316
 42
-0.04242599999999967
 10
1972.904384
 20
2715.24113
 42
-0.1067140000000043
 10
1973.5
 20
2716
 42
0.05468700000000157
 10
1974.074003
 20
2716.593372
 42
0.04307600000000146
 10
1974.559375
 20
2717.344912
 42
0.04440800000000035
 10
1974.891019
 20
2718.132426
 42
0.07761199999999249
 10
1975
 20
2718.830282
 42
-0.1730610000000159
 10
1975.719168
 20
2720.845844
 42
-0.02376899999999986
 10
1978.750399
 20
2724.212754
 42
-0.02366499999999999
 10
1982.086416
 20
2727.277021
 42
-0.1756849999999883
 10
1984.080503
 20
2728
 42
0.07426199999999245
 10
1984.81268
 20
2728.109349
 42
0.04455700000000035
 10
1985.628881
 20
2728.440625
 42
0.04355500000000138
 10
1986.400126
 20
2728.925955
 42
0.05739899999999761
 10
1987
 20
2729.5
 42
-0.106714000000015
 10
1987.75887
 20
2730.095616
 42
-0.04242599999999856
 10
1989.000684
 20
2730.574447999999
 42
-0.03821199999999858
 10
1990.520213
 20
2730.893298999999
 42
-0.03262299999999999
 10
1992.15383
 20
2731
 42
0.02673400000000012
 10
1993.881955
 20
2731.092464
 42
0.05402100000000129
 10
1995.212219
 20
2731.382747
 42
0.07426300000000108
 10
1996.138433
 20
2731.854443
 42
0.1473259999999997
 10
1996.638374
 20
2732.5
 42
-0.171547999999959
 10
1997.235485
 20
2733.200065999999
 42
-0.07344499999999705
 10
1998.393901
 20
2733.660318
 42
-0.04421199999999932
 10
2000.221408
 20
2733.923809
 42
-0.01370799999999994
 10
2003
 20
2734
 42
-0.01370799999999994
 10
2005.778592
 20
2733.923809
 42
-0.04421199999999943
 10
2007.606099
 20
2733.660318
 42
-0.07344499999999951
 10
2008.764515
 20
2733.200065999999
 42
-0.171547999999959
  0
LWPOLYLINE
  5
50
100
AcDbEntity
  8
0
  6
ByLayer
 62
  256
370
   -1
100
AcDbPolyline
 90
   80
 70
    1
 43
0
 10
862.3616259999999
 20
2479.5
 42
0.1091330000000073
 10
862.7406589999999
 20
2478.926257
 42
0.06634500000000181
 10
863.3969000000001
 20
2478.440625
 42
0.06162499999999689
 10
864.216349
 20
2478.111906
 42
0.06469000000000252
 10
865.077668
 20
2478
 42
-0.1294129999999947
 10
867.2527869999999
 20
2477.427434
 42
-0.06290000000000026
 10
869.5735049999998
 20
2475.698025
 42
-0.06315999999999909
 10
871.3770759999999
 20
2473.461239
 42
-0.1369389999999997
 10
871.982723
 20
2471.356989
 42
0.06433099999999964
 10
872.1012070000002
 20
2470.49468
 42
0.06107899999999865
 10
872.43555
 20
2469.674403
 42
0.06570900000000167
 10
872.924939
 20
2469.017482
 42
0.1086449999999856
 10
873.5000000000001
 20
2468.638374
 42
-0.1493619999999863
 10
874.1517579999999
 20
2468.129464
 42
-0.07477699999999926
 10
874.622279
 20
2467.184652
 42
-0.05327200000000007
 10
874.9093739999998
 20
2465.813032
 42
-0.02497699999999986
 10
874.9999999999999
 20
2464
 42
-0.02497699999999997
 10
874.909374
 20
2462.186968
 42
-0.05327200000000007
 10
874.622279
 20
2460.815348
 42
-0.07477700000000105
 10
874.1517579999997
 20
2459.870536
 42
-0.1493619999999677
 10
873.5
 20
2459.361626
 42
0.1030609999999903
 10
872.9263830000001
 20
2458.992494
 42
0.0667429999999994
 10
872.4406249999997
 20
2458.367
 42
0.06299400000000308
 10
872.1120149999998
 20
2457.592355
 42
0.06895300000000064
 10
872.0000000000001
 20
2456.783958
 42
-0.1340330000000007
 10
871.4260490000001
 20
2454.681345
 42
-0.06088000000000069
 10
869.6758550000003
 20
2452.40077
 42
-0.06094900000000169
 10
867.4329630000003
 20
2450.613318
 42
-0.1366060000000065
 10
865.356989
 20
2450.017277
 42
0.06433099999999919
 10
864.49468
 20
2449.898793
 42
0.06107900000000155
 10
863.6744030000001
 20
2449.564449999999
 42
0.06570899999999386
 10
863.0174820000004
 20
2449.075061
 42
0.1086449999999839
 10
862.638374
 20
2448.5
 42
-0.166879999999984
 10
862.0590389999999
 20
2447.808156
 42
-0.07448200000000066
 10
860.948093
 20
2447.345934
 42
-0.04611399999999947
 10
859.219368
 20
2447.078607
 42
-0.01531600000000012
 10
856.65383
 20
2447
 42
-0.01858399999999987
 10
854.208712
 20
2447.090914
 42
-0.03686599999999944
 10
852.2910880000001
 20
2447.376868
 42
-0.04783899999999768
 10
850.8727670000002
 20
2447.842689000001
 42
-0.1168109999999908
 10
850.0000000000001
 20
2448.5
 42
0.06339299999999849
 10
849.385461
 20
2449.074176
 42
0.04427900000000201
 10
848.5692650000002
 20
2449.559375
 42
0.04453300000000173
 10
847.6876660000001
 20
2449.890037
 42
0.06755900000000074
 10
846.877555
 20
2450
 42
-0.1328729999999962
 10
845.0154549999997
 20
2450.50374
 42
-0.06364200000000216
 10
843.0366149999999
 20
2452.025338
 42
-0.063690999999999
 10
841.5062670000002
 20
2453.993253
 42
-0.1342359999999975
 10
841
 20
2455.845012
 42
0.08468399999999757
 10
840.8572089999998
 20
2456.682053
 42
0.04071299999999938
 10
840.4124999999999
 20
2457.679733
 42
0.03883300000000006
 10
839.765311
 20
2458.671193
 42
0.04485299999999976
 10
839
 20
2459.5
 42
-0.06247200000000054
 10
838.2342379999999
 20
2460.390099
 42
-0.04188500000000078
 10
837.5874999999997
 20
2461.56849
 42
-0.04190100000000024
 10
837.146505
 20
2462.837438
 42
-0.06276099999999878
 10
837.0000000000001
 20
2464
 42
-0.06276099999999789
 10
837.1465050000003
 20
2465.162562
 42
-0.04190099999999979
 10
837.5875000000001
 20
2466.43151
 42
-0.04188500000000023
 10
838.234238
 20
2467.609901
 42
-0.06247200000000076
 10
838.9999999999999
 20
2468.5
 42
0.03841799999999964
 10
839.7677759999998
 20
2469.31034
 42
0.03584499999999968
 10
840.422273
 20
2470.24683
 42
0.03787500000000043
 10
840.8803649999999
 20
2471.165411
 42
0.09176499999999847
 10
841.033269
 20
2471.904988
 42
-0.1262800000000012
 10
841.5606660000001
 20
2473.79527
 42
-0.05840699999999939
 10
843.0950699999999
 20
2475.856154
 42
-0.05880000000000168
 10
845.0324549999999
 20
2477.476943000001
 42
-0.1458179999999952
 10
846.7878480000001
 20
2478
 42
0.06494500000000768
 10
847.6323630000002
 20
2478.110158
 42
0.04439599999999924
 10
848.542913
 20
2478.440625
 42
0.04445799999999978
 10
849.3790400000001
 20
2478.925752
 42
0.06596400000000216
 10
850.0000000000003
 20
2479.5
 42
-0.1158609999999846
 10
850.8637250000002
 20
2480.153041
 42
-0.04763699999999998
 10
852.2652619999999
 20
2480.619801
 42
-0.03716100000000083
 10
854.146174
 20
2480.907904000001
 42
-0.01942800000000004
 10
856.515456
 20
2481
 42
-0.01599099999999993
 10
859.003015
 20
2480.920423
 42
-0.0468349999999995
 10
860.695374
 20
2480.651547
 42
-0.07478900000000412
 10
861.7889970000001
 20
2480.188578
 42
-0.1651339999999885
  0
LWPOLYLINE
  5
51
100
AcDbEntity
  8
0
  6
ByLayer
 62
  256
370
   -1
100
AcDbPolyline
 90
   80
 70
    1
 43
0
 10
535
 20
2410.5
 42
0.05400200000000065
 10
535.5917439999999
 20
2409.926007
 42
0.04293900000000022
 10
536.338365
 20
2409.440625
 42
0.0443530000000002
 10
537.1187190000002
 20
2409.108877
 42
0.07849299999999131
 10
537.807993
 20
2409
 42
-0.1478029999999813
 10
539.6873779999997
 20
2408.432034999999
 42
-0.05702199999999967
 10
541.7909449999999
 20
2406.657046
 42
-0.05682399999999949
 10
543.4599279999998
 20
2404.426929
 42
-0.1330109999999987
 10
544
 20
2402.432675
 42
0.06249599999999952
 10
544.111838
 20
2401.541419
 42
0.06082399999999972
 10
544.440625
 20
2400.696636
 42
0.06601700000000076
 10
544.9261729999999
 20
2400.022941
 42
0.1124829999999973
 10
545.5000000000001
 20
2399.638374
 42
-0.1408060000000196
 10
546.1216580000001
 20
2399.169523
 42
-0.07131999999999969
 10
546.5977820000001
 20
2398.303024
 42
-0.05596599999999993
 10
546.900657
 20
2397.108051
 42
-0.03411700000000004
 10
547
 20
2395.65383
 42
-0.03961900000000014
 10
546.8891810000001
 20
2394.257482
 42
-0.03837100000000055
 10
546.5593750000002
 20
2392.880579
 42
-0.04094500000000023
 10
546.076227
 20
2391.717278
 42
-0.1009859999999997
 10
545.5
 20
2391
 42
0.06725299999999876
 10
544.9257129999999
 20
2390.37579
 42
0.04452000000000073
 10
544.4406249999998
 20
2389.529512
 42
0.04430300000000027
 10
544.1102430000001
 20
2388.60423
 42
0.06368699999999856
 10
544
 20
2387.742226
 42
-0.1483689999999959
 10
543.3981399999998
 20
2385.758615
 42
-0.05251999999999929
 10
541.479122
 20
2383.452899
 42
-0.05251600000000044
 10
539.1102390000003
 20
2381.588467
 42
-0.1413960000000152
 10
537.070923
 20
2381
 42
0.06915200000000493
 10
536.280582
 20
2380.890168
 42
0.04457999999999971
 10
535.4156
 20
2380.559375
 42
0.04413900000000087
 10
534.6108339999998
 20
2380.074138
 42
0.06189500000000023
 10
533.9999999999998
 20
2379.5
 42
-0.09777799999998799
 10
533.292309
 20
2378.924037000001
 42
-0.04163700000000094
 10
532.164608
 20
2378.440625
 42
-0.03911500000000021
 10
530.837486
 20
2378.110843
 42
-0.04136599999999942
 10
529.5
 20
2378
 42
-0.04136599999999942
 10
528.162514
 20
2378.110843
 42
-0.03911499999999999
 10
526.835392
 20
2378.440625
 42
-0.04163700000000072
 10
525.707691
 20
2378.924037
 42
-0.0977779999999947
 10
525.0000000000001
 20
2379.5
 42
0.05400200000000088
 10
524.4082560000001
 20
2380.073993
 42
0.04293900000000033
 10
523.661635
 20
2380.559375
 42
0.04435300000000042
 10
522.8812809999998
 20
2380.891123
 42
0.07849299999999119
 10
522.192007
 20
2381
 42
-0.1461620000000068
 10
520.4342280000001
 20
2381.525058000001
 42
-0.04771599999999893
 10
518.3003580000002
 20
2383.236206
 42
-0.04763300000000001
 10
516.536852
 20
2385.311547
 42
-0.1534760000000005
 10
516
 20
2387.019326
 42
0.09101899999999721
 10
515.858794
 20
2387.788595
 42
0.03963500000000056
 10
515.4125000000003
 20
2388.730937
 42
0.03751200000000093
 10
514.7652960000003
 20
2389.684045
 42
0.04095299999999995
 10
514.0000000000001
 20
2390.5
 42
-0.06502899999999753
 10
513.2293650000001
 20
2391.405043
 42
-0.04263700000000051
 10
512.5836460000002
 20
2392.614879
 42
-0.04227399999999984
 10
512.14606
 20
2393.932954
 42
-0.05907900000000034
 10
511.9999999999999
 20
2395.164775
 42
-0.05817100000000048
 10
512.144544
 20
2396.402981
 42
-0.04511199999999929
 10
512.5751060000002
 20
2397.69109
 42
-0.04577399999999903
 10
513.2189420000002
 20
2398.857863
 42
-0.06684499999999663
 10
514.0000000000002
 20
2399.732028
 42
0.04554800000000166
 10
514.7652690000002
 20
2400.51861
 42
0.04009100000000029
 10
515.4125000000001
 20
2401.463665
 42
0.04219700000000094
 10
515.8570960000001
 20
2402.417907
 42
0.08814400000000225
 10
516.0000000000001
 20
2403.222241
 42
-0.1373719999999986
 10
516.5172210000001
 20
2405.069276
 42
-0.06529299999999896
 10
518.0762000000001
 20
2407.011106
 42
-0.06485500000000066
 10
520.1030819999997
 20
2408.502623
 42
-0.126891000000012
 10
522.031385
 20
2409
 42
0.06800599999999664
 10
522.850994
 20
2409.111994
 42
0.06271000000000099
 10
523.635134
 20
2409.440625
 42
0.06667999999999964
 10
524.2671319999999
 20
2409.926359
 42
0.1043630000000004
 10
524.6383739999999
 20
2410.5
 42
-0.1521150000000115
 10
525.1590349999999
 20
2411.159458
 42
-0.07523800000000157
 10
526.129112
 20
2411.628494
 42
-0.0522020000000002
 10
527.5563990000001
 20
2411.911674999999
 42
-0.02289199999999958
 10
529.484544
 20
2412
 42
-0.027964
 10
531.311547
 20
2411.897738000001
 42
-0.03844700000000085
 10
532.9267070000001
 20
2411.589314
 42
-0.04452899999999908
 10
534.2097099999999
 20
2411.114369
 42
-0.1090630000000015
  0
ENDSEC
  0
SECTION
  2
OBJECTS
  0
DICTIONARY
  5
C
330
0
100
AcDbDictionary
281
    1
  3
ACAD_GROUP
350
D
  0
DICTIONARY
  5
D
330
C
100
AcDbDictionary
281
    1
  0
ENDSEC
  0
EOF
